%TF.GenerationSoftware,KiCad,Pcbnew,7.0.8*%
%TF.CreationDate,2025-03-19T21:09:53+05:30*%
%TF.ProjectId,stm32_pcb_design,73746d33-325f-4706-9362-5f6465736967,rev?*%
%TF.SameCoordinates,Original*%
%TF.FileFunction,Copper,L1,Top*%
%TF.FilePolarity,Positive*%
%FSLAX46Y46*%
G04 Gerber Fmt 4.6, Leading zero omitted, Abs format (unit mm)*
G04 Created by KiCad (PCBNEW 7.0.8) date 2025-03-19 21:09:53*
%MOMM*%
%LPD*%
G01*
G04 APERTURE LIST*
G04 Aperture macros list*
%AMRoundRect*
0 Rectangle with rounded corners*
0 $1 Rounding radius*
0 $2 $3 $4 $5 $6 $7 $8 $9 X,Y pos of 4 corners*
0 Add a 4 corners polygon primitive as box body*
4,1,4,$2,$3,$4,$5,$6,$7,$8,$9,$2,$3,0*
0 Add four circle primitives for the rounded corners*
1,1,$1+$1,$2,$3*
1,1,$1+$1,$4,$5*
1,1,$1+$1,$6,$7*
1,1,$1+$1,$8,$9*
0 Add four rect primitives between the rounded corners*
20,1,$1+$1,$2,$3,$4,$5,0*
20,1,$1+$1,$4,$5,$6,$7,0*
20,1,$1+$1,$6,$7,$8,$9,0*
20,1,$1+$1,$8,$9,$2,$3,0*%
G04 Aperture macros list end*
%TA.AperFunction,ComponentPad*%
%ADD10R,1.700000X1.700000*%
%TD*%
%TA.AperFunction,ComponentPad*%
%ADD11O,1.700000X1.700000*%
%TD*%
%TA.AperFunction,SMDPad,CuDef*%
%ADD12RoundRect,0.208750X0.431250X-0.208750X0.431250X0.208750X-0.431250X0.208750X-0.431250X-0.208750X0*%
%TD*%
%TA.AperFunction,SMDPad,CuDef*%
%ADD13RoundRect,0.075000X-0.662500X-0.075000X0.662500X-0.075000X0.662500X0.075000X-0.662500X0.075000X0*%
%TD*%
%TA.AperFunction,SMDPad,CuDef*%
%ADD14RoundRect,0.075000X-0.075000X-0.662500X0.075000X-0.662500X0.075000X0.662500X-0.075000X0.662500X0*%
%TD*%
%TA.AperFunction,SMDPad,CuDef*%
%ADD15RoundRect,0.250000X-0.362500X-0.700000X0.362500X-0.700000X0.362500X0.700000X-0.362500X0.700000X0*%
%TD*%
%TA.AperFunction,SMDPad,CuDef*%
%ADD16RoundRect,0.250000X-0.475000X0.337500X-0.475000X-0.337500X0.475000X-0.337500X0.475000X0.337500X0*%
%TD*%
%TA.AperFunction,SMDPad,CuDef*%
%ADD17RoundRect,0.208750X0.208750X0.431250X-0.208750X0.431250X-0.208750X-0.431250X0.208750X-0.431250X0*%
%TD*%
%TA.AperFunction,SMDPad,CuDef*%
%ADD18RoundRect,0.250000X0.337500X0.475000X-0.337500X0.475000X-0.337500X-0.475000X0.337500X-0.475000X0*%
%TD*%
%TA.AperFunction,SMDPad,CuDef*%
%ADD19RoundRect,0.200000X0.200000X0.275000X-0.200000X0.275000X-0.200000X-0.275000X0.200000X-0.275000X0*%
%TD*%
%TA.AperFunction,SMDPad,CuDef*%
%ADD20RoundRect,0.200000X-0.275000X0.200000X-0.275000X-0.200000X0.275000X-0.200000X0.275000X0.200000X0*%
%TD*%
%TA.AperFunction,SMDPad,CuDef*%
%ADD21RoundRect,0.250000X0.475000X-0.337500X0.475000X0.337500X-0.475000X0.337500X-0.475000X-0.337500X0*%
%TD*%
%TA.AperFunction,SMDPad,CuDef*%
%ADD22R,1.380000X0.450000*%
%TD*%
%TA.AperFunction,SMDPad,CuDef*%
%ADD23R,1.300000X1.650000*%
%TD*%
%TA.AperFunction,SMDPad,CuDef*%
%ADD24R,1.550000X1.425000*%
%TD*%
%TA.AperFunction,SMDPad,CuDef*%
%ADD25R,1.900000X1.800000*%
%TD*%
%TA.AperFunction,SMDPad,CuDef*%
%ADD26R,1.900000X1.000000*%
%TD*%
%TA.AperFunction,SMDPad,CuDef*%
%ADD27RoundRect,0.208750X-0.431250X0.208750X-0.431250X-0.208750X0.431250X-0.208750X0.431250X0.208750X0*%
%TD*%
%TA.AperFunction,SMDPad,CuDef*%
%ADD28R,1.300000X1.000000*%
%TD*%
%TA.AperFunction,SMDPad,CuDef*%
%ADD29RoundRect,0.250000X-0.337500X-0.475000X0.337500X-0.475000X0.337500X0.475000X-0.337500X0.475000X0*%
%TD*%
%TA.AperFunction,SMDPad,CuDef*%
%ADD30R,1.500000X2.000000*%
%TD*%
%TA.AperFunction,SMDPad,CuDef*%
%ADD31R,3.800000X2.000000*%
%TD*%
%TA.AperFunction,SMDPad,CuDef*%
%ADD32RoundRect,0.100000X0.217500X0.100000X-0.217500X0.100000X-0.217500X-0.100000X0.217500X-0.100000X0*%
%TD*%
%TA.AperFunction,ComponentPad*%
%ADD33R,0.850000X0.850000*%
%TD*%
%TA.AperFunction,ComponentPad*%
%ADD34O,0.850000X0.850000*%
%TD*%
%TA.AperFunction,ViaPad*%
%ADD35C,0.800000*%
%TD*%
%TA.AperFunction,Conductor*%
%ADD36C,0.250000*%
%TD*%
%TA.AperFunction,Conductor*%
%ADD37C,0.500000*%
%TD*%
%TA.AperFunction,Conductor*%
%ADD38C,1.000000*%
%TD*%
%TA.AperFunction,Conductor*%
%ADD39C,0.200000*%
%TD*%
G04 APERTURE END LIST*
D10*
%TO.P,PORTC,1,Pin_1*%
%TO.N,Net-(J5-Pin_1)*%
X111760000Y-93995000D03*
D11*
%TO.P,PORTC,2,Pin_2*%
%TO.N,Net-(J5-Pin_2)*%
X111760000Y-96535000D03*
%TO.P,PORTC,3,Pin_3*%
%TO.N,Net-(J5-Pin_3)*%
X111760000Y-99075000D03*
%TD*%
D10*
%TO.P,PORTA,1,Pin_1*%
%TO.N,Net-(J4-Pin_1)*%
X129540000Y-110490000D03*
D11*
%TO.P,PORTA,2,Pin_2*%
%TO.N,Net-(J4-Pin_2)*%
X132080000Y-110490000D03*
%TO.P,PORTA,3,Pin_3*%
%TO.N,Net-(J4-Pin_3)*%
X134620000Y-110490000D03*
%TO.P,PORTA,4,Pin_4*%
%TO.N,Net-(J4-Pin_4)*%
X137160000Y-110490000D03*
%TO.P,PORTA,5,Pin_5*%
%TO.N,Net-(J4-Pin_5)*%
X139700000Y-110490000D03*
%TO.P,PORTA,6,Pin_6*%
%TO.N,Net-(J4-Pin_6)*%
X142240000Y-110490000D03*
%TO.P,PORTA,7,Pin_7*%
%TO.N,Net-(J4-Pin_7)*%
X144780000Y-110490000D03*
%TO.P,PORTA,8,Pin_8*%
%TO.N,Net-(J4-Pin_8)*%
X147320000Y-110490000D03*
%TO.P,PORTA,9,Pin_9*%
%TO.N,Net-(J4-Pin_9)*%
X149860000Y-110490000D03*
%TO.P,PORTA,10,Pin_10*%
%TO.N,Net-(J4-Pin_10)*%
X152400000Y-110490000D03*
%TO.P,PORTA,11,Pin_11*%
%TO.N,Net-(J4-Pin_11)*%
X154940000Y-110490000D03*
%TD*%
D12*
%TO.P,C7,1*%
%TO.N,+3.3VA*%
X152885000Y-90797500D03*
%TO.P,C7,2*%
%TO.N,GND*%
X152885000Y-89542500D03*
%TD*%
D13*
%TO.P,U1,1,VBAT*%
%TO.N,+3.3V*%
X138077500Y-95040000D03*
%TO.P,U1,2,PC13*%
%TO.N,Net-(J5-Pin_1)*%
X138077500Y-95540000D03*
%TO.P,U1,3,PC14*%
%TO.N,Net-(J5-Pin_2)*%
X138077500Y-96040000D03*
%TO.P,U1,4,PC15*%
%TO.N,Net-(J5-Pin_3)*%
X138077500Y-96540000D03*
%TO.P,U1,5,PD0*%
%TO.N,/HSE_IN*%
X138077500Y-97040000D03*
%TO.P,U1,6,PD1*%
%TO.N,/HSE_OUT*%
X138077500Y-97540000D03*
%TO.P,U1,7,NRST*%
%TO.N,/NRST*%
X138077500Y-98040000D03*
%TO.P,U1,8,VSSA*%
%TO.N,GND*%
X138077500Y-98540000D03*
%TO.P,U1,9,VDDA*%
%TO.N,+3.3VA*%
X138077500Y-99040000D03*
%TO.P,U1,10,PA0*%
%TO.N,Net-(J4-Pin_1)*%
X138077500Y-99540000D03*
%TO.P,U1,11,PA1*%
%TO.N,Net-(J4-Pin_2)*%
X138077500Y-100040000D03*
%TO.P,U1,12,PA2*%
%TO.N,Net-(J4-Pin_3)*%
X138077500Y-100540000D03*
D14*
%TO.P,U1,13,PA3*%
%TO.N,Net-(J4-Pin_4)*%
X139490000Y-101952500D03*
%TO.P,U1,14,PA4*%
%TO.N,Net-(J4-Pin_5)*%
X139990000Y-101952500D03*
%TO.P,U1,15,PA5*%
%TO.N,Net-(J4-Pin_6)*%
X140490000Y-101952500D03*
%TO.P,U1,16,PA6*%
%TO.N,Net-(J4-Pin_7)*%
X140990000Y-101952500D03*
%TO.P,U1,17,PA7*%
%TO.N,Net-(J4-Pin_8)*%
X141490000Y-101952500D03*
%TO.P,U1,18,PB0*%
%TO.N,unconnected-(U1-PB0-Pad18)*%
X141990000Y-101952500D03*
%TO.P,U1,19,PB1*%
%TO.N,unconnected-(U1-PB1-Pad19)*%
X142490000Y-101952500D03*
%TO.P,U1,20,PB2*%
%TO.N,unconnected-(U1-PB2-Pad20)*%
X142990000Y-101952500D03*
%TO.P,U1,21,PB10*%
%TO.N,unconnected-(U1-PB10-Pad21)*%
X143490000Y-101952500D03*
%TO.P,U1,22,PB11*%
%TO.N,unconnected-(U1-PB11-Pad22)*%
X143990000Y-101952500D03*
%TO.P,U1,23,VSS*%
%TO.N,GND*%
X144490000Y-101952500D03*
%TO.P,U1,24,VDD*%
%TO.N,+3.3V*%
X144990000Y-101952500D03*
D13*
%TO.P,U1,25,PB12*%
%TO.N,unconnected-(U1-PB12-Pad25)*%
X146402500Y-100540000D03*
%TO.P,U1,26,PB13*%
%TO.N,unconnected-(U1-PB13-Pad26)*%
X146402500Y-100040000D03*
%TO.P,U1,27,PB14*%
%TO.N,unconnected-(U1-PB14-Pad27)*%
X146402500Y-99540000D03*
%TO.P,U1,28,PB15*%
%TO.N,unconnected-(U1-PB15-Pad28)*%
X146402500Y-99040000D03*
%TO.P,U1,29,PA8*%
%TO.N,Net-(J4-Pin_9)*%
X146402500Y-98540000D03*
%TO.P,U1,30,PA9*%
%TO.N,Net-(J4-Pin_10)*%
X146402500Y-98040000D03*
%TO.P,U1,31,PA10*%
%TO.N,Net-(J4-Pin_11)*%
X146402500Y-97540000D03*
%TO.P,U1,32,PA11*%
%TO.N,/USB_D-*%
X146402500Y-97040000D03*
%TO.P,U1,33,PA12*%
%TO.N,/USB_D+*%
X146402500Y-96540000D03*
%TO.P,U1,34,PA13*%
%TO.N,/SWDIO*%
X146402500Y-96040000D03*
%TO.P,U1,35,VSS*%
%TO.N,GND*%
X146402500Y-95540000D03*
%TO.P,U1,36,VDD*%
%TO.N,+3.3V*%
X146402500Y-95040000D03*
D14*
%TO.P,U1,37,PA14*%
%TO.N,/SWCLK*%
X144990000Y-93627500D03*
%TO.P,U1,38,PA15*%
%TO.N,unconnected-(U1-PA15-Pad38)*%
X144490000Y-93627500D03*
%TO.P,U1,39,PB3*%
%TO.N,Net-(J3-Pin_1)*%
X143990000Y-93627500D03*
%TO.P,U1,40,PB4*%
%TO.N,Net-(J3-Pin_2)*%
X143490000Y-93627500D03*
%TO.P,U1,41,PB5*%
%TO.N,Net-(J3-Pin_3)*%
X142990000Y-93627500D03*
%TO.P,U1,42,PB6*%
%TO.N,Net-(J3-Pin_4)*%
X142490000Y-93627500D03*
%TO.P,U1,43,PB7*%
%TO.N,Net-(J3-Pin_5)*%
X141990000Y-93627500D03*
%TO.P,U1,44,BOOT0*%
%TO.N,/BOOT0*%
X141490000Y-93627500D03*
%TO.P,U1,45,PB8*%
%TO.N,Net-(J3-Pin_6)*%
X140990000Y-93627500D03*
%TO.P,U1,46,PB9*%
%TO.N,Net-(J3-Pin_7)*%
X140490000Y-93627500D03*
%TO.P,U1,47,VSS*%
%TO.N,GND*%
X139990000Y-93627500D03*
%TO.P,U1,48,VDD*%
%TO.N,+3.3V*%
X139490000Y-93627500D03*
%TD*%
D15*
%TO.P,FB1,1*%
%TO.N,+3.3VA*%
X149075000Y-93980000D03*
%TO.P,FB1,2*%
%TO.N,+3.3V*%
X152400000Y-93980000D03*
%TD*%
D16*
%TO.P,C5,1*%
%TO.N,+3.3V*%
X149860000Y-104140000D03*
%TO.P,C5,2*%
%TO.N,GND*%
X149860000Y-106215000D03*
%TD*%
D17*
%TO.P,C10,1*%
%TO.N,/HSE_IN*%
X124460000Y-102870000D03*
%TO.P,C10,2*%
%TO.N,GND*%
X123205000Y-102870000D03*
%TD*%
D16*
%TO.P,C9,1*%
%TO.N,/NRST*%
X134620000Y-100330000D03*
%TO.P,C9,2*%
%TO.N,GND*%
X134620000Y-102405000D03*
%TD*%
D18*
%TO.P,C3,1*%
%TO.N,+3.3V*%
X134620000Y-92710000D03*
%TO.P,C3,2*%
%TO.N,GND*%
X132545000Y-92710000D03*
%TD*%
D19*
%TO.P,R3,1*%
%TO.N,Net-(D1-K)*%
X159575000Y-99060000D03*
%TO.P,R3,2*%
%TO.N,GND*%
X157925000Y-99060000D03*
%TD*%
D20*
%TO.P,R1,1*%
%TO.N,/sw_boot0*%
X137160000Y-86360000D03*
%TO.P,R1,2*%
%TO.N,/BOOT0*%
X137160000Y-88010000D03*
%TD*%
D18*
%TO.P,C2,1*%
%TO.N,+3.3V*%
X145817500Y-104140000D03*
%TO.P,C2,2*%
%TO.N,GND*%
X143742500Y-104140000D03*
%TD*%
D12*
%TO.P,C11,2*%
%TO.N,GND*%
X127000000Y-96422500D03*
%TO.P,C11,1*%
%TO.N,/HSE_OUT*%
X127000000Y-97677500D03*
%TD*%
%TO.P,C8,1*%
%TO.N,+3.3V*%
X152400000Y-101600000D03*
%TO.P,C8,2*%
%TO.N,GND*%
X152400000Y-100345000D03*
%TD*%
%TO.P,C13,1*%
%TO.N,+3.3V*%
X154940000Y-101585000D03*
%TO.P,C13,2*%
%TO.N,GND*%
X154940000Y-100330000D03*
%TD*%
D21*
%TO.P,C1,1*%
%TO.N,+3.3V*%
X149860000Y-101777500D03*
%TO.P,C1,2*%
%TO.N,GND*%
X149860000Y-99702500D03*
%TD*%
D10*
%TO.P,SWD,1,Pin_1*%
%TO.N,+3.3VA*%
X154930000Y-82550000D03*
D11*
%TO.P,SWD,2,Pin_2*%
%TO.N,/SWDIO*%
X152390000Y-82550000D03*
%TO.P,SWD,3,Pin_3*%
%TO.N,/SWCLK*%
X149850000Y-82550000D03*
%TO.P,SWD,4,Pin_4*%
%TO.N,GND*%
X147310000Y-82550000D03*
%TD*%
D21*
%TO.P,C6,1*%
%TO.N,+3.3VA*%
X149075000Y-90975000D03*
%TO.P,C6,2*%
%TO.N,GND*%
X149075000Y-88900000D03*
%TD*%
D22*
%TO.P,J1,1,VBUS*%
%TO.N,VBUS*%
X178880000Y-97820000D03*
%TO.P,J1,2,D-*%
%TO.N,/USB_D-*%
X178880000Y-97170000D03*
%TO.P,J1,3,D+*%
%TO.N,/USB_D+*%
X178880000Y-96520000D03*
%TO.P,J1,4,ID*%
%TO.N,unconnected-(J1-ID-Pad4)*%
X178880000Y-95870000D03*
%TO.P,J1,5,GND*%
%TO.N,GND*%
X178880000Y-95220000D03*
D23*
%TO.P,J1,6,Shield*%
%TO.N,unconnected-(J1-Shield-Pad6)*%
X181540000Y-99895000D03*
D24*
X178965000Y-99007500D03*
D25*
X181540000Y-97670000D03*
D26*
X181540000Y-94970000D03*
D24*
X178965000Y-94032500D03*
D23*
X181540000Y-93145000D03*
%TD*%
D27*
%TO.P,C12,1*%
%TO.N,VBUS*%
X174562500Y-98485000D03*
%TO.P,C12,2*%
%TO.N,GND*%
X174562500Y-99740000D03*
%TD*%
D10*
%TO.P,PORTB,1,Pin_1*%
%TO.N,Net-(J3-Pin_1)*%
X143510000Y-82550000D03*
D11*
%TO.P,PORTB,2,Pin_2*%
%TO.N,Net-(J3-Pin_2)*%
X140970000Y-82550000D03*
%TO.P,PORTB,3,Pin_3*%
%TO.N,Net-(J3-Pin_3)*%
X138430000Y-82550000D03*
%TO.P,PORTB,4,Pin_4*%
%TO.N,Net-(J3-Pin_4)*%
X135890000Y-82550000D03*
%TO.P,PORTB,5,Pin_5*%
%TO.N,Net-(J3-Pin_5)*%
X133350000Y-82550000D03*
%TO.P,PORTB,6,Pin_6*%
%TO.N,Net-(J3-Pin_6)*%
X130810000Y-82550000D03*
%TO.P,PORTB,7,Pin_7*%
%TO.N,Net-(J3-Pin_7)*%
X128270000Y-82550000D03*
%TD*%
D20*
%TO.P,R2,1*%
%TO.N,+3.3VA*%
X156655000Y-93980000D03*
%TO.P,R2,2*%
%TO.N,/USB_D+*%
X156655000Y-95630000D03*
%TD*%
D28*
%TO.P,Y1,4,4*%
%TO.N,GND*%
X124800000Y-99060000D03*
%TO.P,Y1,3,3*%
%TO.N,/HSE_OUT*%
X127000000Y-99060000D03*
%TO.P,Y1,2,2*%
%TO.N,GND*%
X127000000Y-100860000D03*
%TO.P,Y1,1,1*%
%TO.N,/HSE_IN*%
X124800000Y-100860000D03*
%TD*%
D29*
%TO.P,C4,1*%
%TO.N,+3.3V*%
X135890000Y-90170000D03*
%TO.P,C4,2*%
%TO.N,GND*%
X137965000Y-90170000D03*
%TD*%
D30*
%TO.P,U2,1,GND*%
%TO.N,GND*%
X164070000Y-104802500D03*
%TO.P,U2,2,VO*%
%TO.N,+3.3V*%
X166370000Y-104802500D03*
D31*
X166370000Y-98502500D03*
D30*
%TO.P,U2,3,VI*%
%TO.N,VBUS*%
X168670000Y-104802500D03*
%TD*%
D32*
%TO.P,D1,1,K*%
%TO.N,Net-(D1-K)*%
X158725000Y-101600000D03*
%TO.P,D1,2,A*%
%TO.N,+3.3V*%
X157910000Y-101600000D03*
%TD*%
D33*
%TO.P,SW1,1,A*%
%TO.N,GND*%
X129810000Y-87630000D03*
D34*
%TO.P,SW1,2,B*%
%TO.N,/sw_boot0*%
X130810000Y-87630000D03*
%TO.P,SW1,3,C*%
%TO.N,+3.3V*%
X131810000Y-87630000D03*
%TD*%
D35*
%TO.N,+3.3V*%
X142082701Y-95092701D03*
X143660049Y-95564549D03*
X151130000Y-105410000D03*
X146740500Y-106680000D03*
%TO.N,/BOOT0*%
X140970000Y-88900000D03*
X138975500Y-87668306D03*
%TO.N,+3.3V*%
X151130000Y-97790000D03*
X151130000Y-95250000D03*
%TD*%
D36*
%TO.N,+3.3V*%
X158235000Y-102125000D02*
X157910000Y-101800000D01*
X162747500Y-102125000D02*
X158235000Y-102125000D01*
X166370000Y-98502500D02*
X162747500Y-102125000D01*
X157910000Y-101800000D02*
X157910000Y-101600000D01*
X154955000Y-101600000D02*
X154940000Y-101585000D01*
X157910000Y-101600000D02*
X154955000Y-101600000D01*
%TO.N,Net-(J3-Pin_4)*%
X138013542Y-83720344D02*
X142490000Y-88196802D01*
X142490000Y-88196802D02*
X142490000Y-93627500D01*
X137696740Y-83720344D02*
X138013542Y-83720344D01*
X137160000Y-83183604D02*
X137696740Y-83720344D01*
X137160000Y-82740000D02*
X137160000Y-83183604D01*
X135890000Y-82550000D02*
X136970000Y-82550000D01*
X136970000Y-82550000D02*
X137160000Y-82740000D01*
%TO.N,Net-(J3-Pin_5)*%
X137827146Y-84170344D02*
X142015000Y-88358198D01*
X142015000Y-88358198D02*
X142015000Y-93652500D01*
X142015000Y-93652500D02*
X141990000Y-93627500D01*
X137160000Y-83820000D02*
X137510344Y-84170344D01*
X134620000Y-83820000D02*
X137160000Y-83820000D01*
X133350000Y-82550000D02*
X134620000Y-83820000D01*
X137510344Y-84170344D02*
X137827146Y-84170344D01*
%TO.N,Net-(J3-Pin_6)*%
X140990000Y-90343604D02*
X140990000Y-93627500D01*
X140150000Y-87129594D02*
X140150000Y-89503604D01*
X137567498Y-84620344D02*
X137640750Y-84620344D01*
X137547842Y-84640000D02*
X137567498Y-84620344D01*
X132900000Y-84640000D02*
X137547842Y-84640000D01*
X140150000Y-89503604D02*
X140990000Y-90343604D01*
X130810000Y-82550000D02*
X132900000Y-84640000D01*
X137640750Y-84620344D02*
X140150000Y-87129594D01*
%TO.N,+3.3V*%
X143660049Y-95564549D02*
X144992533Y-95564549D01*
X144992533Y-95564549D02*
X145517082Y-95040000D01*
X145517082Y-95040000D02*
X146402500Y-95040000D01*
X139418750Y-94359436D02*
X139418750Y-93698750D01*
X140152015Y-95092701D02*
X139418750Y-94359436D01*
X142082701Y-95092701D02*
X140152015Y-95092701D01*
X139418750Y-93698750D02*
X139490000Y-93627500D01*
X138077500Y-95040000D02*
X139418750Y-93698750D01*
%TO.N,+3.3VA*%
X139160000Y-99040000D02*
X138077500Y-99040000D01*
X145465000Y-94455686D02*
X145230686Y-94690000D01*
X145465000Y-93980000D02*
X145465000Y-94455686D01*
X145230686Y-94690000D02*
X143510000Y-94690000D01*
X149075000Y-93980000D02*
X145465000Y-93980000D01*
X143510000Y-94690000D02*
X139160000Y-99040000D01*
%TO.N,/SWDIO*%
X152500000Y-96040000D02*
X146402500Y-96040000D01*
X156947462Y-94905000D02*
X153635000Y-94905000D01*
X153635000Y-94905000D02*
X152500000Y-96040000D01*
X157455000Y-82915380D02*
X157455000Y-94397462D01*
X152390000Y-82550000D02*
X153565000Y-81375000D01*
X153565000Y-81375000D02*
X155914620Y-81375000D01*
X155914620Y-81375000D02*
X157455000Y-82915380D01*
X157455000Y-94397462D02*
X156947462Y-94905000D01*
%TO.N,+3.3V*%
X145817500Y-105757000D02*
X146740500Y-106680000D01*
X151130000Y-105410000D02*
X149860000Y-104140000D01*
X145817500Y-104140000D02*
X145817500Y-105757000D01*
X144990000Y-103312500D02*
X145817500Y-104140000D01*
X144990000Y-101952500D02*
X144990000Y-103312500D01*
%TO.N,Net-(J4-Pin_9)*%
X147465000Y-108095000D02*
X149860000Y-110490000D01*
X147465000Y-98799314D02*
X147465000Y-108095000D01*
X147205686Y-98540000D02*
X147465000Y-98799314D01*
X146402500Y-98540000D02*
X147205686Y-98540000D01*
%TO.N,Net-(J4-Pin_10)*%
X152400000Y-109220000D02*
X152400000Y-110490000D01*
X151130000Y-107950000D02*
X152400000Y-109220000D01*
X149332930Y-107950000D02*
X151130000Y-107950000D01*
X148140000Y-98610000D02*
X148140000Y-106757070D01*
X148140000Y-106757070D02*
X149332930Y-107950000D01*
X147570000Y-98040000D02*
X148140000Y-98610000D01*
X146402500Y-98040000D02*
X147570000Y-98040000D01*
%TO.N,Net-(J4-Pin_11)*%
X151577500Y-107127500D02*
X154940000Y-110490000D01*
X148590000Y-97790000D02*
X148590000Y-106570674D01*
X148340000Y-97540000D02*
X148590000Y-97790000D01*
X149146826Y-107127500D02*
X151577500Y-107127500D01*
X146402500Y-97540000D02*
X148340000Y-97540000D01*
X148590000Y-106570674D02*
X149146826Y-107127500D01*
D37*
%TO.N,+3.3V*%
X135890000Y-91440000D02*
X134620000Y-92710000D01*
X135890000Y-90170000D02*
X135890000Y-91440000D01*
D36*
%TO.N,/BOOT0*%
X141490000Y-89420000D02*
X141490000Y-93627500D01*
X140970000Y-88900000D02*
X141490000Y-89420000D01*
X138937194Y-87630000D02*
X138975500Y-87668306D01*
X138430000Y-87630000D02*
X138937194Y-87630000D01*
X138050000Y-88010000D02*
X138430000Y-87630000D01*
X137160000Y-88010000D02*
X138050000Y-88010000D01*
%TO.N,Net-(J3-Pin_7)*%
X140490000Y-90480000D02*
X140490000Y-93627500D01*
X139700000Y-89690000D02*
X140490000Y-90480000D01*
X137474010Y-85090000D02*
X139700000Y-87315990D01*
X139700000Y-87315990D02*
X139700000Y-89690000D01*
X130810000Y-85090000D02*
X137474010Y-85090000D01*
X128270000Y-82550000D02*
X130810000Y-85090000D01*
%TO.N,Net-(J3-Pin_3)*%
X142990000Y-87743604D02*
X142990000Y-93627500D01*
X138516740Y-83270344D02*
X142990000Y-87743604D01*
X138430000Y-82550000D02*
X138430000Y-83270344D01*
X138430000Y-83270344D02*
X138516740Y-83270344D01*
%TO.N,Net-(J3-Pin_2)*%
X143490000Y-85070000D02*
X143490000Y-93627500D01*
X140970000Y-82550000D02*
X143490000Y-85070000D01*
%TO.N,Net-(J3-Pin_1)*%
X143510000Y-82550000D02*
X143990000Y-83030000D01*
X143990000Y-83030000D02*
X143990000Y-93627500D01*
%TO.N,+3.3V*%
X132815000Y-87630000D02*
X135355000Y-90170000D01*
X131810000Y-87630000D02*
X132815000Y-87630000D01*
%TO.N,/sw_boot0*%
X130810000Y-86670000D02*
X130810000Y-87630000D01*
X131100000Y-86380000D02*
X130810000Y-86670000D01*
X137410000Y-86380000D02*
X131100000Y-86380000D01*
X137430000Y-86360000D02*
X137410000Y-86380000D01*
%TO.N,Net-(J4-Pin_8)*%
X141490000Y-104660000D02*
X147320000Y-110490000D01*
X141490000Y-101952500D02*
X141490000Y-104660000D01*
%TO.N,Net-(J4-Pin_7)*%
X140990000Y-106700000D02*
X144780000Y-110490000D01*
X140990000Y-101952500D02*
X140990000Y-106700000D01*
%TO.N,Net-(J4-Pin_6)*%
X140440000Y-102805686D02*
X140440000Y-108690000D01*
X140440000Y-108690000D02*
X142240000Y-110490000D01*
X140490000Y-102755686D02*
X140440000Y-102805686D01*
X140490000Y-101952500D02*
X140490000Y-102755686D01*
%TO.N,Net-(J4-Pin_5)*%
X139990000Y-110200000D02*
X139700000Y-110490000D01*
X139990000Y-101952500D02*
X139990000Y-110200000D01*
%TO.N,Net-(J4-Pin_4)*%
X138430000Y-104140000D02*
X138430000Y-109220000D01*
X138430000Y-109220000D02*
X137160000Y-110490000D01*
X139490000Y-103080000D02*
X138430000Y-104140000D01*
X139490000Y-101952500D02*
X139490000Y-103080000D01*
%TO.N,Net-(J4-Pin_3)*%
X137160000Y-101457500D02*
X137160000Y-107950000D01*
X138077500Y-100540000D02*
X137160000Y-101457500D01*
X137160000Y-107950000D02*
X134620000Y-110490000D01*
%TO.N,Net-(J4-Pin_2)*%
X136340000Y-103690000D02*
X132080000Y-107950000D01*
X136340000Y-100974314D02*
X136340000Y-103690000D01*
X132080000Y-107950000D02*
X132080000Y-110490000D01*
X137274314Y-100040000D02*
X136340000Y-100974314D01*
X138077500Y-100040000D02*
X137274314Y-100040000D01*
%TO.N,Net-(J4-Pin_1)*%
X129540000Y-109220000D02*
X129540000Y-110490000D01*
X135890000Y-102870000D02*
X129540000Y-109220000D01*
X136836396Y-99540000D02*
X135890000Y-100486396D01*
X138077500Y-99540000D02*
X136836396Y-99540000D01*
X135890000Y-100486396D02*
X135890000Y-102870000D01*
%TO.N,/SWCLK*%
X144990000Y-89960000D02*
X149850000Y-85100000D01*
X149850000Y-85100000D02*
X149850000Y-82550000D01*
X144990000Y-93627500D02*
X144990000Y-89960000D01*
D37*
%TO.N,+3.3VA*%
X154930000Y-89392500D02*
X154930000Y-82550000D01*
X153525000Y-90797500D02*
X154930000Y-89392500D01*
X152885000Y-90797500D02*
X153525000Y-90797500D01*
%TO.N,+3.3V*%
X151130000Y-97790000D02*
X151130000Y-101777500D01*
X151130000Y-101777500D02*
X152222500Y-101777500D01*
X149860000Y-101777500D02*
X151130000Y-101777500D01*
D36*
X152400000Y-93980000D02*
X151130000Y-95250000D01*
D38*
X166370000Y-98502500D02*
X166370000Y-104802500D01*
D36*
X147205686Y-95040000D02*
X146402500Y-95040000D01*
X147420686Y-95255000D02*
X147205686Y-95040000D01*
X151125000Y-95255000D02*
X147420686Y-95255000D01*
X152400000Y-93980000D02*
X151125000Y-95255000D01*
%TO.N,Net-(J5-Pin_1)*%
X133335000Y-93995000D02*
X111760000Y-93995000D01*
X133350000Y-93980000D02*
X133335000Y-93995000D01*
X134910000Y-95540000D02*
X133350000Y-93980000D01*
X138077500Y-95540000D02*
X134910000Y-95540000D01*
%TO.N,Net-(J5-Pin_2)*%
X113495000Y-94800000D02*
X111760000Y-96535000D01*
X131089620Y-94800000D02*
X113495000Y-94800000D01*
X132329620Y-96040000D02*
X131089620Y-94800000D01*
X138077500Y-96040000D02*
X132329620Y-96040000D01*
%TO.N,Net-(J5-Pin_3)*%
X132193224Y-96540000D02*
X130903224Y-95250000D01*
X130903224Y-95250000D02*
X115585000Y-95250000D01*
X138077500Y-96540000D02*
X132193224Y-96540000D01*
X115585000Y-95250000D02*
X111760000Y-99075000D01*
%TO.N,+3.3V*%
X136950000Y-95040000D02*
X134620000Y-92710000D01*
X138077500Y-95040000D02*
X136950000Y-95040000D01*
%TO.N,/NRST*%
X136910000Y-98040000D02*
X138077500Y-98040000D01*
D37*
%TO.N,/HSE_OUT*%
X127000000Y-97677500D02*
X127000000Y-99060000D01*
D36*
X124572880Y-97677500D02*
X127000000Y-97677500D01*
X121920000Y-102979838D02*
X121920000Y-100330380D01*
X121920000Y-100330380D02*
X124572880Y-97677500D01*
X122775162Y-103835000D02*
X121920000Y-102979838D01*
X126271016Y-103835000D02*
X122775162Y-103835000D01*
X132566016Y-97540000D02*
X126271016Y-103835000D01*
X138077500Y-97540000D02*
X132566016Y-97540000D01*
D37*
%TO.N,/HSE_IN*%
X124460000Y-101200000D02*
X124800000Y-100860000D01*
X124460000Y-102870000D02*
X124460000Y-101200000D01*
D36*
X126599620Y-102870000D02*
X124460000Y-102870000D01*
X132429620Y-97040000D02*
X126599620Y-102870000D01*
X138077500Y-97040000D02*
X132429620Y-97040000D01*
D37*
%TO.N,+3.3VA*%
X156067500Y-93980000D02*
X152885000Y-90797500D01*
X156655000Y-93980000D02*
X156067500Y-93980000D01*
X149075000Y-90975000D02*
X149075000Y-93980000D01*
X152707500Y-90975000D02*
X152885000Y-90797500D01*
X149075000Y-90975000D02*
X152707500Y-90975000D01*
D39*
%TO.N,/USB_D+*%
X155875000Y-95630000D02*
X156655000Y-95630000D01*
X154940000Y-96565000D02*
X155875000Y-95630000D01*
X154940000Y-96565000D02*
X178835000Y-96565000D01*
X147533751Y-96565000D02*
X154940000Y-96565000D01*
D36*
%TO.N,VBUS*%
X175227500Y-97820000D02*
X178880000Y-97820000D01*
X174562500Y-98485000D02*
X175227500Y-97820000D01*
D39*
%TO.N,/USB_D+*%
X178835000Y-96565000D02*
X178880000Y-96520000D01*
X147508751Y-96540000D02*
X147533751Y-96565000D01*
X146402500Y-96540000D02*
X147508751Y-96540000D01*
%TO.N,/USB_D-*%
X178190736Y-97170000D02*
X178880000Y-97170000D01*
X178035736Y-97015000D02*
X178190736Y-97170000D01*
X147533751Y-97015000D02*
X178035736Y-97015000D01*
X147508751Y-97040000D02*
X147533751Y-97015000D01*
X146402500Y-97040000D02*
X147508751Y-97040000D01*
D37*
%TO.N,VBUS*%
X168670000Y-103737500D02*
X168670000Y-104802500D01*
X173922500Y-98485000D02*
X168670000Y-103737500D01*
X174562500Y-98485000D02*
X173922500Y-98485000D01*
D36*
%TO.N,Net-(D1-K)*%
X158725000Y-101600000D02*
X159575000Y-100750000D01*
X159575000Y-100750000D02*
X159575000Y-99060000D01*
%TO.N,+3.3V*%
X157895000Y-101585000D02*
X157910000Y-101600000D01*
D37*
X152400000Y-101600000D02*
X154925000Y-101600000D01*
X154925000Y-101600000D02*
X154940000Y-101585000D01*
X152222500Y-101777500D02*
X152400000Y-101600000D01*
X149860000Y-101777500D02*
X149860000Y-104140000D01*
D36*
%TO.N,/NRST*%
X136910000Y-98040000D02*
X134620000Y-100330000D01*
%TD*%
M02*
