%TF.GenerationSoftware,KiCad,Pcbnew,7.0.8*%
%TF.CreationDate,2025-03-19T21:09:53+05:30*%
%TF.ProjectId,stm32_pcb_design,73746d33-325f-4706-9362-5f6465736967,rev?*%
%TF.SameCoordinates,Original*%
%TF.FileFunction,Legend,Top*%
%TF.FilePolarity,Positive*%
%FSLAX46Y46*%
G04 Gerber Fmt 4.6, Leading zero omitted, Abs format (unit mm)*
G04 Created by KiCad (PCBNEW 7.0.8) date 2025-03-19 21:09:53*
%MOMM*%
%LPD*%
G01*
G04 APERTURE LIST*
%ADD10C,0.150000*%
%ADD11C,0.120000*%
%ADD12C,0.100000*%
G04 APERTURE END LIST*
D10*
X109593333Y-92119819D02*
X109593333Y-91119819D01*
X109593333Y-91119819D02*
X109974285Y-91119819D01*
X109974285Y-91119819D02*
X110069523Y-91167438D01*
X110069523Y-91167438D02*
X110117142Y-91215057D01*
X110117142Y-91215057D02*
X110164761Y-91310295D01*
X110164761Y-91310295D02*
X110164761Y-91453152D01*
X110164761Y-91453152D02*
X110117142Y-91548390D01*
X110117142Y-91548390D02*
X110069523Y-91596009D01*
X110069523Y-91596009D02*
X109974285Y-91643628D01*
X109974285Y-91643628D02*
X109593333Y-91643628D01*
X110783809Y-91119819D02*
X110974285Y-91119819D01*
X110974285Y-91119819D02*
X111069523Y-91167438D01*
X111069523Y-91167438D02*
X111164761Y-91262676D01*
X111164761Y-91262676D02*
X111212380Y-91453152D01*
X111212380Y-91453152D02*
X111212380Y-91786485D01*
X111212380Y-91786485D02*
X111164761Y-91976961D01*
X111164761Y-91976961D02*
X111069523Y-92072200D01*
X111069523Y-92072200D02*
X110974285Y-92119819D01*
X110974285Y-92119819D02*
X110783809Y-92119819D01*
X110783809Y-92119819D02*
X110688571Y-92072200D01*
X110688571Y-92072200D02*
X110593333Y-91976961D01*
X110593333Y-91976961D02*
X110545714Y-91786485D01*
X110545714Y-91786485D02*
X110545714Y-91453152D01*
X110545714Y-91453152D02*
X110593333Y-91262676D01*
X110593333Y-91262676D02*
X110688571Y-91167438D01*
X110688571Y-91167438D02*
X110783809Y-91119819D01*
X112212380Y-92119819D02*
X111879047Y-91643628D01*
X111640952Y-92119819D02*
X111640952Y-91119819D01*
X111640952Y-91119819D02*
X112021904Y-91119819D01*
X112021904Y-91119819D02*
X112117142Y-91167438D01*
X112117142Y-91167438D02*
X112164761Y-91215057D01*
X112164761Y-91215057D02*
X112212380Y-91310295D01*
X112212380Y-91310295D02*
X112212380Y-91453152D01*
X112212380Y-91453152D02*
X112164761Y-91548390D01*
X112164761Y-91548390D02*
X112117142Y-91596009D01*
X112117142Y-91596009D02*
X112021904Y-91643628D01*
X112021904Y-91643628D02*
X111640952Y-91643628D01*
X112498095Y-91119819D02*
X113069523Y-91119819D01*
X112783809Y-92119819D02*
X112783809Y-91119819D01*
X113974285Y-92024580D02*
X113926666Y-92072200D01*
X113926666Y-92072200D02*
X113783809Y-92119819D01*
X113783809Y-92119819D02*
X113688571Y-92119819D01*
X113688571Y-92119819D02*
X113545714Y-92072200D01*
X113545714Y-92072200D02*
X113450476Y-91976961D01*
X113450476Y-91976961D02*
X113402857Y-91881723D01*
X113402857Y-91881723D02*
X113355238Y-91691247D01*
X113355238Y-91691247D02*
X113355238Y-91548390D01*
X113355238Y-91548390D02*
X113402857Y-91357914D01*
X113402857Y-91357914D02*
X113450476Y-91262676D01*
X113450476Y-91262676D02*
X113545714Y-91167438D01*
X113545714Y-91167438D02*
X113688571Y-91119819D01*
X113688571Y-91119819D02*
X113783809Y-91119819D01*
X113783809Y-91119819D02*
X113926666Y-91167438D01*
X113926666Y-91167438D02*
X113974285Y-91215057D01*
X127664819Y-112585237D02*
X126664819Y-112585237D01*
X126664819Y-112585237D02*
X126664819Y-112204285D01*
X126664819Y-112204285D02*
X126712438Y-112109047D01*
X126712438Y-112109047D02*
X126760057Y-112061428D01*
X126760057Y-112061428D02*
X126855295Y-112013809D01*
X126855295Y-112013809D02*
X126998152Y-112013809D01*
X126998152Y-112013809D02*
X127093390Y-112061428D01*
X127093390Y-112061428D02*
X127141009Y-112109047D01*
X127141009Y-112109047D02*
X127188628Y-112204285D01*
X127188628Y-112204285D02*
X127188628Y-112585237D01*
X126664819Y-111394761D02*
X126664819Y-111204285D01*
X126664819Y-111204285D02*
X126712438Y-111109047D01*
X126712438Y-111109047D02*
X126807676Y-111013809D01*
X126807676Y-111013809D02*
X126998152Y-110966190D01*
X126998152Y-110966190D02*
X127331485Y-110966190D01*
X127331485Y-110966190D02*
X127521961Y-111013809D01*
X127521961Y-111013809D02*
X127617200Y-111109047D01*
X127617200Y-111109047D02*
X127664819Y-111204285D01*
X127664819Y-111204285D02*
X127664819Y-111394761D01*
X127664819Y-111394761D02*
X127617200Y-111489999D01*
X127617200Y-111489999D02*
X127521961Y-111585237D01*
X127521961Y-111585237D02*
X127331485Y-111632856D01*
X127331485Y-111632856D02*
X126998152Y-111632856D01*
X126998152Y-111632856D02*
X126807676Y-111585237D01*
X126807676Y-111585237D02*
X126712438Y-111489999D01*
X126712438Y-111489999D02*
X126664819Y-111394761D01*
X127664819Y-109966190D02*
X127188628Y-110299523D01*
X127664819Y-110537618D02*
X126664819Y-110537618D01*
X126664819Y-110537618D02*
X126664819Y-110156666D01*
X126664819Y-110156666D02*
X126712438Y-110061428D01*
X126712438Y-110061428D02*
X126760057Y-110013809D01*
X126760057Y-110013809D02*
X126855295Y-109966190D01*
X126855295Y-109966190D02*
X126998152Y-109966190D01*
X126998152Y-109966190D02*
X127093390Y-110013809D01*
X127093390Y-110013809D02*
X127141009Y-110061428D01*
X127141009Y-110061428D02*
X127188628Y-110156666D01*
X127188628Y-110156666D02*
X127188628Y-110537618D01*
X126664819Y-109680475D02*
X126664819Y-109109047D01*
X127664819Y-109394761D02*
X126664819Y-109394761D01*
X127379104Y-108823332D02*
X127379104Y-108347142D01*
X127664819Y-108918570D02*
X126664819Y-108585237D01*
X126664819Y-108585237D02*
X127664819Y-108251904D01*
X151754580Y-90336666D02*
X151802200Y-90384285D01*
X151802200Y-90384285D02*
X151849819Y-90527142D01*
X151849819Y-90527142D02*
X151849819Y-90622380D01*
X151849819Y-90622380D02*
X151802200Y-90765237D01*
X151802200Y-90765237D02*
X151706961Y-90860475D01*
X151706961Y-90860475D02*
X151611723Y-90908094D01*
X151611723Y-90908094D02*
X151421247Y-90955713D01*
X151421247Y-90955713D02*
X151278390Y-90955713D01*
X151278390Y-90955713D02*
X151087914Y-90908094D01*
X151087914Y-90908094D02*
X150992676Y-90860475D01*
X150992676Y-90860475D02*
X150897438Y-90765237D01*
X150897438Y-90765237D02*
X150849819Y-90622380D01*
X150849819Y-90622380D02*
X150849819Y-90527142D01*
X150849819Y-90527142D02*
X150897438Y-90384285D01*
X150897438Y-90384285D02*
X150945057Y-90336666D01*
X150849819Y-90003332D02*
X150849819Y-89336666D01*
X150849819Y-89336666D02*
X151849819Y-89765237D01*
X141478095Y-97244819D02*
X141478095Y-98054342D01*
X141478095Y-98054342D02*
X141525714Y-98149580D01*
X141525714Y-98149580D02*
X141573333Y-98197200D01*
X141573333Y-98197200D02*
X141668571Y-98244819D01*
X141668571Y-98244819D02*
X141859047Y-98244819D01*
X141859047Y-98244819D02*
X141954285Y-98197200D01*
X141954285Y-98197200D02*
X142001904Y-98149580D01*
X142001904Y-98149580D02*
X142049523Y-98054342D01*
X142049523Y-98054342D02*
X142049523Y-97244819D01*
X143049523Y-98244819D02*
X142478095Y-98244819D01*
X142763809Y-98244819D02*
X142763809Y-97244819D01*
X142763809Y-97244819D02*
X142668571Y-97387676D01*
X142668571Y-97387676D02*
X142573333Y-97482914D01*
X142573333Y-97482914D02*
X142478095Y-97530533D01*
X153971058Y-94697210D02*
X153971058Y-95030543D01*
X154494868Y-95030543D02*
X153494868Y-95030543D01*
X153494868Y-95030543D02*
X153494868Y-94554353D01*
X153971058Y-93840067D02*
X154018677Y-93697210D01*
X154018677Y-93697210D02*
X154066296Y-93649591D01*
X154066296Y-93649591D02*
X154161534Y-93601972D01*
X154161534Y-93601972D02*
X154304391Y-93601972D01*
X154304391Y-93601972D02*
X154399629Y-93649591D01*
X154399629Y-93649591D02*
X154447249Y-93697210D01*
X154447249Y-93697210D02*
X154494868Y-93792448D01*
X154494868Y-93792448D02*
X154494868Y-94173400D01*
X154494868Y-94173400D02*
X153494868Y-94173400D01*
X153494868Y-94173400D02*
X153494868Y-93840067D01*
X153494868Y-93840067D02*
X153542487Y-93744829D01*
X153542487Y-93744829D02*
X153590106Y-93697210D01*
X153590106Y-93697210D02*
X153685344Y-93649591D01*
X153685344Y-93649591D02*
X153780582Y-93649591D01*
X153780582Y-93649591D02*
X153875820Y-93697210D01*
X153875820Y-93697210D02*
X153923439Y-93744829D01*
X153923439Y-93744829D02*
X153971058Y-93840067D01*
X153971058Y-93840067D02*
X153971058Y-94173400D01*
X154494868Y-92649591D02*
X154494868Y-93221019D01*
X154494868Y-92935305D02*
X153494868Y-92935305D01*
X153494868Y-92935305D02*
X153637725Y-93030543D01*
X153637725Y-93030543D02*
X153732963Y-93125781D01*
X153732963Y-93125781D02*
X153780582Y-93221019D01*
X151899580Y-105344166D02*
X151947200Y-105391785D01*
X151947200Y-105391785D02*
X151994819Y-105534642D01*
X151994819Y-105534642D02*
X151994819Y-105629880D01*
X151994819Y-105629880D02*
X151947200Y-105772737D01*
X151947200Y-105772737D02*
X151851961Y-105867975D01*
X151851961Y-105867975D02*
X151756723Y-105915594D01*
X151756723Y-105915594D02*
X151566247Y-105963213D01*
X151566247Y-105963213D02*
X151423390Y-105963213D01*
X151423390Y-105963213D02*
X151232914Y-105915594D01*
X151232914Y-105915594D02*
X151137676Y-105867975D01*
X151137676Y-105867975D02*
X151042438Y-105772737D01*
X151042438Y-105772737D02*
X150994819Y-105629880D01*
X150994819Y-105629880D02*
X150994819Y-105534642D01*
X150994819Y-105534642D02*
X151042438Y-105391785D01*
X151042438Y-105391785D02*
X151090057Y-105344166D01*
X150994819Y-104439404D02*
X150994819Y-104915594D01*
X150994819Y-104915594D02*
X151471009Y-104963213D01*
X151471009Y-104963213D02*
X151423390Y-104915594D01*
X151423390Y-104915594D02*
X151375771Y-104820356D01*
X151375771Y-104820356D02*
X151375771Y-104582261D01*
X151375771Y-104582261D02*
X151423390Y-104487023D01*
X151423390Y-104487023D02*
X151471009Y-104439404D01*
X151471009Y-104439404D02*
X151566247Y-104391785D01*
X151566247Y-104391785D02*
X151804342Y-104391785D01*
X151804342Y-104391785D02*
X151899580Y-104439404D01*
X151899580Y-104439404D02*
X151947200Y-104487023D01*
X151947200Y-104487023D02*
X151994819Y-104582261D01*
X151994819Y-104582261D02*
X151994819Y-104820356D01*
X151994819Y-104820356D02*
X151947200Y-104915594D01*
X151947200Y-104915594D02*
X151899580Y-104963213D01*
X123189642Y-104719580D02*
X123142023Y-104767200D01*
X123142023Y-104767200D02*
X122999166Y-104814819D01*
X122999166Y-104814819D02*
X122903928Y-104814819D01*
X122903928Y-104814819D02*
X122761071Y-104767200D01*
X122761071Y-104767200D02*
X122665833Y-104671961D01*
X122665833Y-104671961D02*
X122618214Y-104576723D01*
X122618214Y-104576723D02*
X122570595Y-104386247D01*
X122570595Y-104386247D02*
X122570595Y-104243390D01*
X122570595Y-104243390D02*
X122618214Y-104052914D01*
X122618214Y-104052914D02*
X122665833Y-103957676D01*
X122665833Y-103957676D02*
X122761071Y-103862438D01*
X122761071Y-103862438D02*
X122903928Y-103814819D01*
X122903928Y-103814819D02*
X122999166Y-103814819D01*
X122999166Y-103814819D02*
X123142023Y-103862438D01*
X123142023Y-103862438D02*
X123189642Y-103910057D01*
X124142023Y-104814819D02*
X123570595Y-104814819D01*
X123856309Y-104814819D02*
X123856309Y-103814819D01*
X123856309Y-103814819D02*
X123761071Y-103957676D01*
X123761071Y-103957676D02*
X123665833Y-104052914D01*
X123665833Y-104052914D02*
X123570595Y-104100533D01*
X124761071Y-103814819D02*
X124856309Y-103814819D01*
X124856309Y-103814819D02*
X124951547Y-103862438D01*
X124951547Y-103862438D02*
X124999166Y-103910057D01*
X124999166Y-103910057D02*
X125046785Y-104005295D01*
X125046785Y-104005295D02*
X125094404Y-104195771D01*
X125094404Y-104195771D02*
X125094404Y-104433866D01*
X125094404Y-104433866D02*
X125046785Y-104624342D01*
X125046785Y-104624342D02*
X124999166Y-104719580D01*
X124999166Y-104719580D02*
X124951547Y-104767200D01*
X124951547Y-104767200D02*
X124856309Y-104814819D01*
X124856309Y-104814819D02*
X124761071Y-104814819D01*
X124761071Y-104814819D02*
X124665833Y-104767200D01*
X124665833Y-104767200D02*
X124618214Y-104719580D01*
X124618214Y-104719580D02*
X124570595Y-104624342D01*
X124570595Y-104624342D02*
X124522976Y-104433866D01*
X124522976Y-104433866D02*
X124522976Y-104195771D01*
X124522976Y-104195771D02*
X124570595Y-104005295D01*
X124570595Y-104005295D02*
X124618214Y-103910057D01*
X124618214Y-103910057D02*
X124665833Y-103862438D01*
X124665833Y-103862438D02*
X124761071Y-103814819D01*
X136659580Y-101534166D02*
X136707200Y-101581785D01*
X136707200Y-101581785D02*
X136754819Y-101724642D01*
X136754819Y-101724642D02*
X136754819Y-101819880D01*
X136754819Y-101819880D02*
X136707200Y-101962737D01*
X136707200Y-101962737D02*
X136611961Y-102057975D01*
X136611961Y-102057975D02*
X136516723Y-102105594D01*
X136516723Y-102105594D02*
X136326247Y-102153213D01*
X136326247Y-102153213D02*
X136183390Y-102153213D01*
X136183390Y-102153213D02*
X135992914Y-102105594D01*
X135992914Y-102105594D02*
X135897676Y-102057975D01*
X135897676Y-102057975D02*
X135802438Y-101962737D01*
X135802438Y-101962737D02*
X135754819Y-101819880D01*
X135754819Y-101819880D02*
X135754819Y-101724642D01*
X135754819Y-101724642D02*
X135802438Y-101581785D01*
X135802438Y-101581785D02*
X135850057Y-101534166D01*
X136754819Y-101057975D02*
X136754819Y-100867499D01*
X136754819Y-100867499D02*
X136707200Y-100772261D01*
X136707200Y-100772261D02*
X136659580Y-100724642D01*
X136659580Y-100724642D02*
X136516723Y-100629404D01*
X136516723Y-100629404D02*
X136326247Y-100581785D01*
X136326247Y-100581785D02*
X135945295Y-100581785D01*
X135945295Y-100581785D02*
X135850057Y-100629404D01*
X135850057Y-100629404D02*
X135802438Y-100677023D01*
X135802438Y-100677023D02*
X135754819Y-100772261D01*
X135754819Y-100772261D02*
X135754819Y-100962737D01*
X135754819Y-100962737D02*
X135802438Y-101057975D01*
X135802438Y-101057975D02*
X135850057Y-101105594D01*
X135850057Y-101105594D02*
X135945295Y-101153213D01*
X135945295Y-101153213D02*
X136183390Y-101153213D01*
X136183390Y-101153213D02*
X136278628Y-101105594D01*
X136278628Y-101105594D02*
X136326247Y-101057975D01*
X136326247Y-101057975D02*
X136373866Y-100962737D01*
X136373866Y-100962737D02*
X136373866Y-100772261D01*
X136373866Y-100772261D02*
X136326247Y-100677023D01*
X136326247Y-100677023D02*
X136278628Y-100629404D01*
X136278628Y-100629404D02*
X136183390Y-100581785D01*
X133415833Y-94749580D02*
X133368214Y-94797200D01*
X133368214Y-94797200D02*
X133225357Y-94844819D01*
X133225357Y-94844819D02*
X133130119Y-94844819D01*
X133130119Y-94844819D02*
X132987262Y-94797200D01*
X132987262Y-94797200D02*
X132892024Y-94701961D01*
X132892024Y-94701961D02*
X132844405Y-94606723D01*
X132844405Y-94606723D02*
X132796786Y-94416247D01*
X132796786Y-94416247D02*
X132796786Y-94273390D01*
X132796786Y-94273390D02*
X132844405Y-94082914D01*
X132844405Y-94082914D02*
X132892024Y-93987676D01*
X132892024Y-93987676D02*
X132987262Y-93892438D01*
X132987262Y-93892438D02*
X133130119Y-93844819D01*
X133130119Y-93844819D02*
X133225357Y-93844819D01*
X133225357Y-93844819D02*
X133368214Y-93892438D01*
X133368214Y-93892438D02*
X133415833Y-93940057D01*
X133749167Y-93844819D02*
X134368214Y-93844819D01*
X134368214Y-93844819D02*
X134034881Y-94225771D01*
X134034881Y-94225771D02*
X134177738Y-94225771D01*
X134177738Y-94225771D02*
X134272976Y-94273390D01*
X134272976Y-94273390D02*
X134320595Y-94321009D01*
X134320595Y-94321009D02*
X134368214Y-94416247D01*
X134368214Y-94416247D02*
X134368214Y-94654342D01*
X134368214Y-94654342D02*
X134320595Y-94749580D01*
X134320595Y-94749580D02*
X134272976Y-94797200D01*
X134272976Y-94797200D02*
X134177738Y-94844819D01*
X134177738Y-94844819D02*
X133892024Y-94844819D01*
X133892024Y-94844819D02*
X133796786Y-94797200D01*
X133796786Y-94797200D02*
X133749167Y-94749580D01*
X158583333Y-100944819D02*
X158250000Y-100468628D01*
X158011905Y-100944819D02*
X158011905Y-99944819D01*
X158011905Y-99944819D02*
X158392857Y-99944819D01*
X158392857Y-99944819D02*
X158488095Y-99992438D01*
X158488095Y-99992438D02*
X158535714Y-100040057D01*
X158535714Y-100040057D02*
X158583333Y-100135295D01*
X158583333Y-100135295D02*
X158583333Y-100278152D01*
X158583333Y-100278152D02*
X158535714Y-100373390D01*
X158535714Y-100373390D02*
X158488095Y-100421009D01*
X158488095Y-100421009D02*
X158392857Y-100468628D01*
X158392857Y-100468628D02*
X158011905Y-100468628D01*
X158916667Y-99944819D02*
X159535714Y-99944819D01*
X159535714Y-99944819D02*
X159202381Y-100325771D01*
X159202381Y-100325771D02*
X159345238Y-100325771D01*
X159345238Y-100325771D02*
X159440476Y-100373390D01*
X159440476Y-100373390D02*
X159488095Y-100421009D01*
X159488095Y-100421009D02*
X159535714Y-100516247D01*
X159535714Y-100516247D02*
X159535714Y-100754342D01*
X159535714Y-100754342D02*
X159488095Y-100849580D01*
X159488095Y-100849580D02*
X159440476Y-100897200D01*
X159440476Y-100897200D02*
X159345238Y-100944819D01*
X159345238Y-100944819D02*
X159059524Y-100944819D01*
X159059524Y-100944819D02*
X158964286Y-100897200D01*
X158964286Y-100897200D02*
X158916667Y-100849580D01*
X139044819Y-86081666D02*
X138568628Y-86414999D01*
X139044819Y-86653094D02*
X138044819Y-86653094D01*
X138044819Y-86653094D02*
X138044819Y-86272142D01*
X138044819Y-86272142D02*
X138092438Y-86176904D01*
X138092438Y-86176904D02*
X138140057Y-86129285D01*
X138140057Y-86129285D02*
X138235295Y-86081666D01*
X138235295Y-86081666D02*
X138378152Y-86081666D01*
X138378152Y-86081666D02*
X138473390Y-86129285D01*
X138473390Y-86129285D02*
X138521009Y-86176904D01*
X138521009Y-86176904D02*
X138568628Y-86272142D01*
X138568628Y-86272142D02*
X138568628Y-86653094D01*
X139044819Y-85129285D02*
X139044819Y-85700713D01*
X139044819Y-85414999D02*
X138044819Y-85414999D01*
X138044819Y-85414999D02*
X138187676Y-85510237D01*
X138187676Y-85510237D02*
X138282914Y-85605475D01*
X138282914Y-85605475D02*
X138330533Y-85700713D01*
X144380833Y-107039580D02*
X144333214Y-107087200D01*
X144333214Y-107087200D02*
X144190357Y-107134819D01*
X144190357Y-107134819D02*
X144095119Y-107134819D01*
X144095119Y-107134819D02*
X143952262Y-107087200D01*
X143952262Y-107087200D02*
X143857024Y-106991961D01*
X143857024Y-106991961D02*
X143809405Y-106896723D01*
X143809405Y-106896723D02*
X143761786Y-106706247D01*
X143761786Y-106706247D02*
X143761786Y-106563390D01*
X143761786Y-106563390D02*
X143809405Y-106372914D01*
X143809405Y-106372914D02*
X143857024Y-106277676D01*
X143857024Y-106277676D02*
X143952262Y-106182438D01*
X143952262Y-106182438D02*
X144095119Y-106134819D01*
X144095119Y-106134819D02*
X144190357Y-106134819D01*
X144190357Y-106134819D02*
X144333214Y-106182438D01*
X144333214Y-106182438D02*
X144380833Y-106230057D01*
X144761786Y-106230057D02*
X144809405Y-106182438D01*
X144809405Y-106182438D02*
X144904643Y-106134819D01*
X144904643Y-106134819D02*
X145142738Y-106134819D01*
X145142738Y-106134819D02*
X145237976Y-106182438D01*
X145237976Y-106182438D02*
X145285595Y-106230057D01*
X145285595Y-106230057D02*
X145333214Y-106325295D01*
X145333214Y-106325295D02*
X145333214Y-106420533D01*
X145333214Y-106420533D02*
X145285595Y-106563390D01*
X145285595Y-106563390D02*
X144714167Y-107134819D01*
X144714167Y-107134819D02*
X145333214Y-107134819D01*
X129899580Y-97692857D02*
X129947200Y-97740476D01*
X129947200Y-97740476D02*
X129994819Y-97883333D01*
X129994819Y-97883333D02*
X129994819Y-97978571D01*
X129994819Y-97978571D02*
X129947200Y-98121428D01*
X129947200Y-98121428D02*
X129851961Y-98216666D01*
X129851961Y-98216666D02*
X129756723Y-98264285D01*
X129756723Y-98264285D02*
X129566247Y-98311904D01*
X129566247Y-98311904D02*
X129423390Y-98311904D01*
X129423390Y-98311904D02*
X129232914Y-98264285D01*
X129232914Y-98264285D02*
X129137676Y-98216666D01*
X129137676Y-98216666D02*
X129042438Y-98121428D01*
X129042438Y-98121428D02*
X128994819Y-97978571D01*
X128994819Y-97978571D02*
X128994819Y-97883333D01*
X128994819Y-97883333D02*
X129042438Y-97740476D01*
X129042438Y-97740476D02*
X129090057Y-97692857D01*
X129994819Y-96740476D02*
X129994819Y-97311904D01*
X129994819Y-97026190D02*
X128994819Y-97026190D01*
X128994819Y-97026190D02*
X129137676Y-97121428D01*
X129137676Y-97121428D02*
X129232914Y-97216666D01*
X129232914Y-97216666D02*
X129280533Y-97311904D01*
X129994819Y-95788095D02*
X129994819Y-96359523D01*
X129994819Y-96073809D02*
X128994819Y-96073809D01*
X128994819Y-96073809D02*
X129137676Y-96169047D01*
X129137676Y-96169047D02*
X129232914Y-96264285D01*
X129232914Y-96264285D02*
X129280533Y-96359523D01*
X152759580Y-97956666D02*
X152807200Y-98004285D01*
X152807200Y-98004285D02*
X152854819Y-98147142D01*
X152854819Y-98147142D02*
X152854819Y-98242380D01*
X152854819Y-98242380D02*
X152807200Y-98385237D01*
X152807200Y-98385237D02*
X152711961Y-98480475D01*
X152711961Y-98480475D02*
X152616723Y-98528094D01*
X152616723Y-98528094D02*
X152426247Y-98575713D01*
X152426247Y-98575713D02*
X152283390Y-98575713D01*
X152283390Y-98575713D02*
X152092914Y-98528094D01*
X152092914Y-98528094D02*
X151997676Y-98480475D01*
X151997676Y-98480475D02*
X151902438Y-98385237D01*
X151902438Y-98385237D02*
X151854819Y-98242380D01*
X151854819Y-98242380D02*
X151854819Y-98147142D01*
X151854819Y-98147142D02*
X151902438Y-98004285D01*
X151902438Y-98004285D02*
X151950057Y-97956666D01*
X152283390Y-97385237D02*
X152235771Y-97480475D01*
X152235771Y-97480475D02*
X152188152Y-97528094D01*
X152188152Y-97528094D02*
X152092914Y-97575713D01*
X152092914Y-97575713D02*
X152045295Y-97575713D01*
X152045295Y-97575713D02*
X151950057Y-97528094D01*
X151950057Y-97528094D02*
X151902438Y-97480475D01*
X151902438Y-97480475D02*
X151854819Y-97385237D01*
X151854819Y-97385237D02*
X151854819Y-97194761D01*
X151854819Y-97194761D02*
X151902438Y-97099523D01*
X151902438Y-97099523D02*
X151950057Y-97051904D01*
X151950057Y-97051904D02*
X152045295Y-97004285D01*
X152045295Y-97004285D02*
X152092914Y-97004285D01*
X152092914Y-97004285D02*
X152188152Y-97051904D01*
X152188152Y-97051904D02*
X152235771Y-97099523D01*
X152235771Y-97099523D02*
X152283390Y-97194761D01*
X152283390Y-97194761D02*
X152283390Y-97385237D01*
X152283390Y-97385237D02*
X152331009Y-97480475D01*
X152331009Y-97480475D02*
X152378628Y-97528094D01*
X152378628Y-97528094D02*
X152473866Y-97575713D01*
X152473866Y-97575713D02*
X152664342Y-97575713D01*
X152664342Y-97575713D02*
X152759580Y-97528094D01*
X152759580Y-97528094D02*
X152807200Y-97480475D01*
X152807200Y-97480475D02*
X152854819Y-97385237D01*
X152854819Y-97385237D02*
X152854819Y-97194761D01*
X152854819Y-97194761D02*
X152807200Y-97099523D01*
X152807200Y-97099523D02*
X152759580Y-97051904D01*
X152759580Y-97051904D02*
X152664342Y-97004285D01*
X152664342Y-97004285D02*
X152473866Y-97004285D01*
X152473866Y-97004285D02*
X152378628Y-97051904D01*
X152378628Y-97051904D02*
X152331009Y-97099523D01*
X152331009Y-97099523D02*
X152283390Y-97194761D01*
X155299580Y-104782857D02*
X155347200Y-104830476D01*
X155347200Y-104830476D02*
X155394819Y-104973333D01*
X155394819Y-104973333D02*
X155394819Y-105068571D01*
X155394819Y-105068571D02*
X155347200Y-105211428D01*
X155347200Y-105211428D02*
X155251961Y-105306666D01*
X155251961Y-105306666D02*
X155156723Y-105354285D01*
X155156723Y-105354285D02*
X154966247Y-105401904D01*
X154966247Y-105401904D02*
X154823390Y-105401904D01*
X154823390Y-105401904D02*
X154632914Y-105354285D01*
X154632914Y-105354285D02*
X154537676Y-105306666D01*
X154537676Y-105306666D02*
X154442438Y-105211428D01*
X154442438Y-105211428D02*
X154394819Y-105068571D01*
X154394819Y-105068571D02*
X154394819Y-104973333D01*
X154394819Y-104973333D02*
X154442438Y-104830476D01*
X154442438Y-104830476D02*
X154490057Y-104782857D01*
X155394819Y-103830476D02*
X155394819Y-104401904D01*
X155394819Y-104116190D02*
X154394819Y-104116190D01*
X154394819Y-104116190D02*
X154537676Y-104211428D01*
X154537676Y-104211428D02*
X154632914Y-104306666D01*
X154632914Y-104306666D02*
X154680533Y-104401904D01*
X154394819Y-103497142D02*
X154394819Y-102878095D01*
X154394819Y-102878095D02*
X154775771Y-103211428D01*
X154775771Y-103211428D02*
X154775771Y-103068571D01*
X154775771Y-103068571D02*
X154823390Y-102973333D01*
X154823390Y-102973333D02*
X154871009Y-102925714D01*
X154871009Y-102925714D02*
X154966247Y-102878095D01*
X154966247Y-102878095D02*
X155204342Y-102878095D01*
X155204342Y-102878095D02*
X155299580Y-102925714D01*
X155299580Y-102925714D02*
X155347200Y-102973333D01*
X155347200Y-102973333D02*
X155394819Y-103068571D01*
X155394819Y-103068571D02*
X155394819Y-103354285D01*
X155394819Y-103354285D02*
X155347200Y-103449523D01*
X155347200Y-103449523D02*
X155299580Y-103497142D01*
X148539580Y-100906666D02*
X148587200Y-100954285D01*
X148587200Y-100954285D02*
X148634819Y-101097142D01*
X148634819Y-101097142D02*
X148634819Y-101192380D01*
X148634819Y-101192380D02*
X148587200Y-101335237D01*
X148587200Y-101335237D02*
X148491961Y-101430475D01*
X148491961Y-101430475D02*
X148396723Y-101478094D01*
X148396723Y-101478094D02*
X148206247Y-101525713D01*
X148206247Y-101525713D02*
X148063390Y-101525713D01*
X148063390Y-101525713D02*
X147872914Y-101478094D01*
X147872914Y-101478094D02*
X147777676Y-101430475D01*
X147777676Y-101430475D02*
X147682438Y-101335237D01*
X147682438Y-101335237D02*
X147634819Y-101192380D01*
X147634819Y-101192380D02*
X147634819Y-101097142D01*
X147634819Y-101097142D02*
X147682438Y-100954285D01*
X147682438Y-100954285D02*
X147730057Y-100906666D01*
X148634819Y-99954285D02*
X148634819Y-100525713D01*
X148634819Y-100239999D02*
X147634819Y-100239999D01*
X147634819Y-100239999D02*
X147777676Y-100335237D01*
X147777676Y-100335237D02*
X147872914Y-100430475D01*
X147872914Y-100430475D02*
X147920533Y-100525713D01*
X157667200Y-83907142D02*
X157714819Y-83764285D01*
X157714819Y-83764285D02*
X157714819Y-83526190D01*
X157714819Y-83526190D02*
X157667200Y-83430952D01*
X157667200Y-83430952D02*
X157619580Y-83383333D01*
X157619580Y-83383333D02*
X157524342Y-83335714D01*
X157524342Y-83335714D02*
X157429104Y-83335714D01*
X157429104Y-83335714D02*
X157333866Y-83383333D01*
X157333866Y-83383333D02*
X157286247Y-83430952D01*
X157286247Y-83430952D02*
X157238628Y-83526190D01*
X157238628Y-83526190D02*
X157191009Y-83716666D01*
X157191009Y-83716666D02*
X157143390Y-83811904D01*
X157143390Y-83811904D02*
X157095771Y-83859523D01*
X157095771Y-83859523D02*
X157000533Y-83907142D01*
X157000533Y-83907142D02*
X156905295Y-83907142D01*
X156905295Y-83907142D02*
X156810057Y-83859523D01*
X156810057Y-83859523D02*
X156762438Y-83811904D01*
X156762438Y-83811904D02*
X156714819Y-83716666D01*
X156714819Y-83716666D02*
X156714819Y-83478571D01*
X156714819Y-83478571D02*
X156762438Y-83335714D01*
X156714819Y-83002380D02*
X157714819Y-82764285D01*
X157714819Y-82764285D02*
X157000533Y-82573809D01*
X157000533Y-82573809D02*
X157714819Y-82383333D01*
X157714819Y-82383333D02*
X156714819Y-82145238D01*
X157714819Y-81764285D02*
X156714819Y-81764285D01*
X156714819Y-81764285D02*
X156714819Y-81526190D01*
X156714819Y-81526190D02*
X156762438Y-81383333D01*
X156762438Y-81383333D02*
X156857676Y-81288095D01*
X156857676Y-81288095D02*
X156952914Y-81240476D01*
X156952914Y-81240476D02*
X157143390Y-81192857D01*
X157143390Y-81192857D02*
X157286247Y-81192857D01*
X157286247Y-81192857D02*
X157476723Y-81240476D01*
X157476723Y-81240476D02*
X157571961Y-81288095D01*
X157571961Y-81288095D02*
X157667200Y-81383333D01*
X157667200Y-81383333D02*
X157714819Y-81526190D01*
X157714819Y-81526190D02*
X157714819Y-81764285D01*
X147754580Y-90104166D02*
X147802200Y-90151785D01*
X147802200Y-90151785D02*
X147849819Y-90294642D01*
X147849819Y-90294642D02*
X147849819Y-90389880D01*
X147849819Y-90389880D02*
X147802200Y-90532737D01*
X147802200Y-90532737D02*
X147706961Y-90627975D01*
X147706961Y-90627975D02*
X147611723Y-90675594D01*
X147611723Y-90675594D02*
X147421247Y-90723213D01*
X147421247Y-90723213D02*
X147278390Y-90723213D01*
X147278390Y-90723213D02*
X147087914Y-90675594D01*
X147087914Y-90675594D02*
X146992676Y-90627975D01*
X146992676Y-90627975D02*
X146897438Y-90532737D01*
X146897438Y-90532737D02*
X146849819Y-90389880D01*
X146849819Y-90389880D02*
X146849819Y-90294642D01*
X146849819Y-90294642D02*
X146897438Y-90151785D01*
X146897438Y-90151785D02*
X146945057Y-90104166D01*
X146849819Y-89247023D02*
X146849819Y-89437499D01*
X146849819Y-89437499D02*
X146897438Y-89532737D01*
X146897438Y-89532737D02*
X146945057Y-89580356D01*
X146945057Y-89580356D02*
X147087914Y-89675594D01*
X147087914Y-89675594D02*
X147278390Y-89723213D01*
X147278390Y-89723213D02*
X147659342Y-89723213D01*
X147659342Y-89723213D02*
X147754580Y-89675594D01*
X147754580Y-89675594D02*
X147802200Y-89627975D01*
X147802200Y-89627975D02*
X147849819Y-89532737D01*
X147849819Y-89532737D02*
X147849819Y-89342261D01*
X147849819Y-89342261D02*
X147802200Y-89247023D01*
X147802200Y-89247023D02*
X147754580Y-89199404D01*
X147754580Y-89199404D02*
X147659342Y-89151785D01*
X147659342Y-89151785D02*
X147421247Y-89151785D01*
X147421247Y-89151785D02*
X147326009Y-89199404D01*
X147326009Y-89199404D02*
X147278390Y-89247023D01*
X147278390Y-89247023D02*
X147230771Y-89342261D01*
X147230771Y-89342261D02*
X147230771Y-89532737D01*
X147230771Y-89532737D02*
X147278390Y-89627975D01*
X147278390Y-89627975D02*
X147326009Y-89675594D01*
X147326009Y-89675594D02*
X147421247Y-89723213D01*
X176494819Y-96853333D02*
X177209104Y-96853333D01*
X177209104Y-96853333D02*
X177351961Y-96900952D01*
X177351961Y-96900952D02*
X177447200Y-96996190D01*
X177447200Y-96996190D02*
X177494819Y-97139047D01*
X177494819Y-97139047D02*
X177494819Y-97234285D01*
X177494819Y-95853333D02*
X177494819Y-96424761D01*
X177494819Y-96139047D02*
X176494819Y-96139047D01*
X176494819Y-96139047D02*
X176637676Y-96234285D01*
X176637676Y-96234285D02*
X176732914Y-96329523D01*
X176732914Y-96329523D02*
X176780533Y-96424761D01*
X174922080Y-102922857D02*
X174969700Y-102970476D01*
X174969700Y-102970476D02*
X175017319Y-103113333D01*
X175017319Y-103113333D02*
X175017319Y-103208571D01*
X175017319Y-103208571D02*
X174969700Y-103351428D01*
X174969700Y-103351428D02*
X174874461Y-103446666D01*
X174874461Y-103446666D02*
X174779223Y-103494285D01*
X174779223Y-103494285D02*
X174588747Y-103541904D01*
X174588747Y-103541904D02*
X174445890Y-103541904D01*
X174445890Y-103541904D02*
X174255414Y-103494285D01*
X174255414Y-103494285D02*
X174160176Y-103446666D01*
X174160176Y-103446666D02*
X174064938Y-103351428D01*
X174064938Y-103351428D02*
X174017319Y-103208571D01*
X174017319Y-103208571D02*
X174017319Y-103113333D01*
X174017319Y-103113333D02*
X174064938Y-102970476D01*
X174064938Y-102970476D02*
X174112557Y-102922857D01*
X175017319Y-101970476D02*
X175017319Y-102541904D01*
X175017319Y-102256190D02*
X174017319Y-102256190D01*
X174017319Y-102256190D02*
X174160176Y-102351428D01*
X174160176Y-102351428D02*
X174255414Y-102446666D01*
X174255414Y-102446666D02*
X174303033Y-102541904D01*
X174112557Y-101589523D02*
X174064938Y-101541904D01*
X174064938Y-101541904D02*
X174017319Y-101446666D01*
X174017319Y-101446666D02*
X174017319Y-101208571D01*
X174017319Y-101208571D02*
X174064938Y-101113333D01*
X174064938Y-101113333D02*
X174112557Y-101065714D01*
X174112557Y-101065714D02*
X174207795Y-101018095D01*
X174207795Y-101018095D02*
X174303033Y-101018095D01*
X174303033Y-101018095D02*
X174445890Y-101065714D01*
X174445890Y-101065714D02*
X175017319Y-101637142D01*
X175017319Y-101637142D02*
X175017319Y-101018095D01*
X126184819Y-84716666D02*
X125184819Y-84716666D01*
X125184819Y-84716666D02*
X125184819Y-84335714D01*
X125184819Y-84335714D02*
X125232438Y-84240476D01*
X125232438Y-84240476D02*
X125280057Y-84192857D01*
X125280057Y-84192857D02*
X125375295Y-84145238D01*
X125375295Y-84145238D02*
X125518152Y-84145238D01*
X125518152Y-84145238D02*
X125613390Y-84192857D01*
X125613390Y-84192857D02*
X125661009Y-84240476D01*
X125661009Y-84240476D02*
X125708628Y-84335714D01*
X125708628Y-84335714D02*
X125708628Y-84716666D01*
X125184819Y-83526190D02*
X125184819Y-83335714D01*
X125184819Y-83335714D02*
X125232438Y-83240476D01*
X125232438Y-83240476D02*
X125327676Y-83145238D01*
X125327676Y-83145238D02*
X125518152Y-83097619D01*
X125518152Y-83097619D02*
X125851485Y-83097619D01*
X125851485Y-83097619D02*
X126041961Y-83145238D01*
X126041961Y-83145238D02*
X126137200Y-83240476D01*
X126137200Y-83240476D02*
X126184819Y-83335714D01*
X126184819Y-83335714D02*
X126184819Y-83526190D01*
X126184819Y-83526190D02*
X126137200Y-83621428D01*
X126137200Y-83621428D02*
X126041961Y-83716666D01*
X126041961Y-83716666D02*
X125851485Y-83764285D01*
X125851485Y-83764285D02*
X125518152Y-83764285D01*
X125518152Y-83764285D02*
X125327676Y-83716666D01*
X125327676Y-83716666D02*
X125232438Y-83621428D01*
X125232438Y-83621428D02*
X125184819Y-83526190D01*
X126184819Y-82097619D02*
X125708628Y-82430952D01*
X126184819Y-82669047D02*
X125184819Y-82669047D01*
X125184819Y-82669047D02*
X125184819Y-82288095D01*
X125184819Y-82288095D02*
X125232438Y-82192857D01*
X125232438Y-82192857D02*
X125280057Y-82145238D01*
X125280057Y-82145238D02*
X125375295Y-82097619D01*
X125375295Y-82097619D02*
X125518152Y-82097619D01*
X125518152Y-82097619D02*
X125613390Y-82145238D01*
X125613390Y-82145238D02*
X125661009Y-82192857D01*
X125661009Y-82192857D02*
X125708628Y-82288095D01*
X125708628Y-82288095D02*
X125708628Y-82669047D01*
X125184819Y-81811904D02*
X125184819Y-81240476D01*
X126184819Y-81526190D02*
X125184819Y-81526190D01*
X125661009Y-80573809D02*
X125708628Y-80430952D01*
X125708628Y-80430952D02*
X125756247Y-80383333D01*
X125756247Y-80383333D02*
X125851485Y-80335714D01*
X125851485Y-80335714D02*
X125994342Y-80335714D01*
X125994342Y-80335714D02*
X126089580Y-80383333D01*
X126089580Y-80383333D02*
X126137200Y-80430952D01*
X126137200Y-80430952D02*
X126184819Y-80526190D01*
X126184819Y-80526190D02*
X126184819Y-80907142D01*
X126184819Y-80907142D02*
X125184819Y-80907142D01*
X125184819Y-80907142D02*
X125184819Y-80573809D01*
X125184819Y-80573809D02*
X125232438Y-80478571D01*
X125232438Y-80478571D02*
X125280057Y-80430952D01*
X125280057Y-80430952D02*
X125375295Y-80383333D01*
X125375295Y-80383333D02*
X125470533Y-80383333D01*
X125470533Y-80383333D02*
X125565771Y-80430952D01*
X125565771Y-80430952D02*
X125613390Y-80478571D01*
X125613390Y-80478571D02*
X125661009Y-80573809D01*
X125661009Y-80573809D02*
X125661009Y-80907142D01*
X158539819Y-94971666D02*
X158063628Y-95304999D01*
X158539819Y-95543094D02*
X157539819Y-95543094D01*
X157539819Y-95543094D02*
X157539819Y-95162142D01*
X157539819Y-95162142D02*
X157587438Y-95066904D01*
X157587438Y-95066904D02*
X157635057Y-95019285D01*
X157635057Y-95019285D02*
X157730295Y-94971666D01*
X157730295Y-94971666D02*
X157873152Y-94971666D01*
X157873152Y-94971666D02*
X157968390Y-95019285D01*
X157968390Y-95019285D02*
X158016009Y-95066904D01*
X158016009Y-95066904D02*
X158063628Y-95162142D01*
X158063628Y-95162142D02*
X158063628Y-95543094D01*
X157635057Y-94590713D02*
X157587438Y-94543094D01*
X157587438Y-94543094D02*
X157539819Y-94447856D01*
X157539819Y-94447856D02*
X157539819Y-94209761D01*
X157539819Y-94209761D02*
X157587438Y-94114523D01*
X157587438Y-94114523D02*
X157635057Y-94066904D01*
X157635057Y-94066904D02*
X157730295Y-94019285D01*
X157730295Y-94019285D02*
X157825533Y-94019285D01*
X157825533Y-94019285D02*
X157968390Y-94066904D01*
X157968390Y-94066904D02*
X158539819Y-94638332D01*
X158539819Y-94638332D02*
X158539819Y-94019285D01*
X122574216Y-99660105D02*
X122574216Y-100136296D01*
X122240883Y-99136296D02*
X122574216Y-99660105D01*
X122574216Y-99660105D02*
X122907549Y-99136296D01*
X123764692Y-100136296D02*
X123193264Y-100136296D01*
X123478978Y-100136296D02*
X123478978Y-99136296D01*
X123478978Y-99136296D02*
X123383740Y-99279153D01*
X123383740Y-99279153D02*
X123288502Y-99374391D01*
X123288502Y-99374391D02*
X123193264Y-99422010D01*
X140059580Y-90336666D02*
X140107200Y-90384285D01*
X140107200Y-90384285D02*
X140154819Y-90527142D01*
X140154819Y-90527142D02*
X140154819Y-90622380D01*
X140154819Y-90622380D02*
X140107200Y-90765237D01*
X140107200Y-90765237D02*
X140011961Y-90860475D01*
X140011961Y-90860475D02*
X139916723Y-90908094D01*
X139916723Y-90908094D02*
X139726247Y-90955713D01*
X139726247Y-90955713D02*
X139583390Y-90955713D01*
X139583390Y-90955713D02*
X139392914Y-90908094D01*
X139392914Y-90908094D02*
X139297676Y-90860475D01*
X139297676Y-90860475D02*
X139202438Y-90765237D01*
X139202438Y-90765237D02*
X139154819Y-90622380D01*
X139154819Y-90622380D02*
X139154819Y-90527142D01*
X139154819Y-90527142D02*
X139202438Y-90384285D01*
X139202438Y-90384285D02*
X139250057Y-90336666D01*
X139488152Y-89479523D02*
X140154819Y-89479523D01*
X139107200Y-89717618D02*
X139821485Y-89955713D01*
X139821485Y-89955713D02*
X139821485Y-89336666D01*
X161324819Y-102414404D02*
X162134342Y-102414404D01*
X162134342Y-102414404D02*
X162229580Y-102366785D01*
X162229580Y-102366785D02*
X162277200Y-102319166D01*
X162277200Y-102319166D02*
X162324819Y-102223928D01*
X162324819Y-102223928D02*
X162324819Y-102033452D01*
X162324819Y-102033452D02*
X162277200Y-101938214D01*
X162277200Y-101938214D02*
X162229580Y-101890595D01*
X162229580Y-101890595D02*
X162134342Y-101842976D01*
X162134342Y-101842976D02*
X161324819Y-101842976D01*
X161420057Y-101414404D02*
X161372438Y-101366785D01*
X161372438Y-101366785D02*
X161324819Y-101271547D01*
X161324819Y-101271547D02*
X161324819Y-101033452D01*
X161324819Y-101033452D02*
X161372438Y-100938214D01*
X161372438Y-100938214D02*
X161420057Y-100890595D01*
X161420057Y-100890595D02*
X161515295Y-100842976D01*
X161515295Y-100842976D02*
X161610533Y-100842976D01*
X161610533Y-100842976D02*
X161753390Y-100890595D01*
X161753390Y-100890595D02*
X162324819Y-101462023D01*
X162324819Y-101462023D02*
X162324819Y-100842976D01*
X157579405Y-103104819D02*
X157579405Y-102104819D01*
X157579405Y-102104819D02*
X157817500Y-102104819D01*
X157817500Y-102104819D02*
X157960357Y-102152438D01*
X157960357Y-102152438D02*
X158055595Y-102247676D01*
X158055595Y-102247676D02*
X158103214Y-102342914D01*
X158103214Y-102342914D02*
X158150833Y-102533390D01*
X158150833Y-102533390D02*
X158150833Y-102676247D01*
X158150833Y-102676247D02*
X158103214Y-102866723D01*
X158103214Y-102866723D02*
X158055595Y-102961961D01*
X158055595Y-102961961D02*
X157960357Y-103057200D01*
X157960357Y-103057200D02*
X157817500Y-103104819D01*
X157817500Y-103104819D02*
X157579405Y-103104819D01*
X159103214Y-103104819D02*
X158531786Y-103104819D01*
X158817500Y-103104819D02*
X158817500Y-102104819D01*
X158817500Y-102104819D02*
X158722262Y-102247676D01*
X158722262Y-102247676D02*
X158627024Y-102342914D01*
X158627024Y-102342914D02*
X158531786Y-102390533D01*
X128657200Y-88963332D02*
X128704819Y-88820475D01*
X128704819Y-88820475D02*
X128704819Y-88582380D01*
X128704819Y-88582380D02*
X128657200Y-88487142D01*
X128657200Y-88487142D02*
X128609580Y-88439523D01*
X128609580Y-88439523D02*
X128514342Y-88391904D01*
X128514342Y-88391904D02*
X128419104Y-88391904D01*
X128419104Y-88391904D02*
X128323866Y-88439523D01*
X128323866Y-88439523D02*
X128276247Y-88487142D01*
X128276247Y-88487142D02*
X128228628Y-88582380D01*
X128228628Y-88582380D02*
X128181009Y-88772856D01*
X128181009Y-88772856D02*
X128133390Y-88868094D01*
X128133390Y-88868094D02*
X128085771Y-88915713D01*
X128085771Y-88915713D02*
X127990533Y-88963332D01*
X127990533Y-88963332D02*
X127895295Y-88963332D01*
X127895295Y-88963332D02*
X127800057Y-88915713D01*
X127800057Y-88915713D02*
X127752438Y-88868094D01*
X127752438Y-88868094D02*
X127704819Y-88772856D01*
X127704819Y-88772856D02*
X127704819Y-88534761D01*
X127704819Y-88534761D02*
X127752438Y-88391904D01*
X127704819Y-88058570D02*
X128704819Y-87820475D01*
X128704819Y-87820475D02*
X127990533Y-87629999D01*
X127990533Y-87629999D02*
X128704819Y-87439523D01*
X128704819Y-87439523D02*
X127704819Y-87201428D01*
X128704819Y-86296666D02*
X128704819Y-86868094D01*
X128704819Y-86582380D02*
X127704819Y-86582380D01*
X127704819Y-86582380D02*
X127847676Y-86677618D01*
X127847676Y-86677618D02*
X127942914Y-86772856D01*
X127942914Y-86772856D02*
X127990533Y-86868094D01*
D11*
%TO.C,PORTC*%
X110430000Y-100405000D02*
X113090000Y-100405000D01*
X110430000Y-95265000D02*
X110430000Y-100405000D01*
X110430000Y-93995000D02*
X110430000Y-92665000D01*
X113090000Y-95265000D02*
X113090000Y-100405000D01*
X110430000Y-92665000D02*
X111760000Y-92665000D01*
X110430000Y-95265000D02*
X113090000Y-95265000D01*
%TO.C,PORTA*%
X128210000Y-111820000D02*
X128210000Y-110490000D01*
X130810000Y-111820000D02*
X156270000Y-111820000D01*
X156270000Y-111820000D02*
X156270000Y-109160000D01*
X130810000Y-111820000D02*
X130810000Y-109160000D01*
X130810000Y-109160000D02*
X156270000Y-109160000D01*
X129540000Y-111820000D02*
X128210000Y-111820000D01*
%TO.C,C7*%
X152265000Y-90271969D02*
X152265000Y-90068031D01*
X153505000Y-90271969D02*
X153505000Y-90068031D01*
%TO.C,U1*%
X138630000Y-94180000D02*
X138630000Y-94630000D01*
X138630000Y-94630000D02*
X137340000Y-94630000D01*
X138630000Y-101400000D02*
X138630000Y-100950000D01*
X139080000Y-94180000D02*
X138630000Y-94180000D01*
X139080000Y-101400000D02*
X138630000Y-101400000D01*
X145400000Y-94180000D02*
X145850000Y-94180000D01*
X145400000Y-101400000D02*
X145850000Y-101400000D01*
X145850000Y-94180000D02*
X145850000Y-94630000D01*
X145850000Y-101400000D02*
X145850000Y-100950000D01*
%TO.C,FB1*%
X149902258Y-93070000D02*
X151572742Y-93070000D01*
X149902258Y-94890000D02*
X151572742Y-94890000D01*
%TO.C,C5*%
X150595000Y-104916248D02*
X150595000Y-105438752D01*
X149125000Y-104916248D02*
X149125000Y-105438752D01*
%TO.C,C10*%
X123934469Y-103490000D02*
X123730531Y-103490000D01*
X123934469Y-102250000D02*
X123730531Y-102250000D01*
%TO.C,C9*%
X135355000Y-101106248D02*
X135355000Y-101628752D01*
X133885000Y-101106248D02*
X133885000Y-101628752D01*
%TO.C,C3*%
X133843752Y-93445000D02*
X133321248Y-93445000D01*
X133843752Y-91975000D02*
X133321248Y-91975000D01*
%TO.C,R3*%
X158987258Y-99582500D02*
X158512742Y-99582500D01*
X158987258Y-98537500D02*
X158512742Y-98537500D01*
%TO.C,R1*%
X137682500Y-86947742D02*
X137682500Y-87422258D01*
X136637500Y-86947742D02*
X136637500Y-87422258D01*
%TO.C,C2*%
X145041252Y-104875000D02*
X144518748Y-104875000D01*
X145041252Y-103405000D02*
X144518748Y-103405000D01*
%TO.C,C11*%
X127620000Y-97151969D02*
X127620000Y-96948031D01*
X126380000Y-97151969D02*
X126380000Y-96948031D01*
%TO.C,C8*%
X151780000Y-101074469D02*
X151780000Y-100870531D01*
X153020000Y-101074469D02*
X153020000Y-100870531D01*
%TO.C,C13*%
X154320000Y-101059469D02*
X154320000Y-100855531D01*
X155560000Y-101059469D02*
X155560000Y-100855531D01*
%TO.C,C1*%
X149125000Y-101001252D02*
X149125000Y-100478748D01*
X150595000Y-101001252D02*
X150595000Y-100478748D01*
%TO.C,SWD*%
X156260000Y-81220000D02*
X156260000Y-82550000D01*
X154930000Y-81220000D02*
X156260000Y-81220000D01*
X153660000Y-81220000D02*
X145980000Y-81220000D01*
X153660000Y-81220000D02*
X153660000Y-83880000D01*
X145980000Y-81220000D02*
X145980000Y-83880000D01*
X153660000Y-83880000D02*
X145980000Y-83880000D01*
%TO.C,C6*%
X148340000Y-90198752D02*
X148340000Y-89676248D01*
X149810000Y-90198752D02*
X149810000Y-89676248D01*
%TO.C,J1*%
X178630000Y-100330000D02*
X178630000Y-99950000D01*
X180400000Y-100330000D02*
X178630000Y-100330000D01*
X182940000Y-100330000D02*
X182680000Y-100330000D01*
X178630000Y-92710000D02*
X178630000Y-93090000D01*
X178630000Y-92710000D02*
X180400000Y-92710000D01*
X182680000Y-92710000D02*
X182940000Y-92710000D01*
%TO.C,C12*%
X175182500Y-99010531D02*
X175182500Y-99214469D01*
X173942500Y-99010531D02*
X173942500Y-99214469D01*
%TO.C,PORTB*%
X144840000Y-81220000D02*
X144840000Y-82550000D01*
X143510000Y-81220000D02*
X144840000Y-81220000D01*
X142240000Y-81220000D02*
X126940000Y-81220000D01*
X142240000Y-81220000D02*
X142240000Y-83880000D01*
X126940000Y-81220000D02*
X126940000Y-83880000D01*
X142240000Y-83880000D02*
X126940000Y-83880000D01*
%TO.C,R2*%
X157177500Y-94567742D02*
X157177500Y-95042258D01*
X156132500Y-94567742D02*
X156132500Y-95042258D01*
%TO.C,Y1*%
X123950000Y-101560000D02*
X127850000Y-101560000D01*
X123950000Y-98360000D02*
X123950000Y-101560000D01*
%TO.C,C4*%
X136666248Y-89435000D02*
X137188752Y-89435000D01*
X136666248Y-90905000D02*
X137188752Y-90905000D01*
%TO.C,U2*%
X162960000Y-105752500D02*
X162960000Y-99742500D01*
X169780000Y-103502500D02*
X169780000Y-99742500D01*
X162960000Y-99742500D02*
X164220000Y-99742500D01*
X169780000Y-99742500D02*
X168520000Y-99742500D01*
D12*
%TO.C,D1*%
X159402500Y-101600000D02*
G75*
G03*
X159402500Y-101600000I-50000J0D01*
G01*
D11*
%TO.C,SW1*%
X129125000Y-88325000D02*
X129125000Y-87630000D01*
X129810000Y-88325000D02*
X129125000Y-88325000D01*
X130495000Y-88325000D02*
X132370000Y-88325000D01*
X130495000Y-88325000D02*
X130495000Y-88238276D01*
X132370000Y-88325000D02*
X132370000Y-88024493D01*
X132370000Y-87235507D02*
X132370000Y-86935000D01*
X130495000Y-87021724D02*
X130495000Y-86935000D01*
X130495000Y-86935000D02*
X132370000Y-86935000D01*
%TD*%
M02*
