%TF.GenerationSoftware,KiCad,Pcbnew,7.0.8*%
%TF.CreationDate,2025-03-19T21:09:53+05:30*%
%TF.ProjectId,stm32_pcb_design,73746d33-325f-4706-9362-5f6465736967,rev?*%
%TF.SameCoordinates,Original*%
%TF.FileFunction,Copper,L2,Bot*%
%TF.FilePolarity,Positive*%
%FSLAX46Y46*%
G04 Gerber Fmt 4.6, Leading zero omitted, Abs format (unit mm)*
G04 Created by KiCad (PCBNEW 7.0.8) date 2025-03-19 21:09:53*
%MOMM*%
%LPD*%
G01*
G04 APERTURE LIST*
%TA.AperFunction,ComponentPad*%
%ADD10R,1.700000X1.700000*%
%TD*%
%TA.AperFunction,ComponentPad*%
%ADD11O,1.700000X1.700000*%
%TD*%
%TA.AperFunction,ComponentPad*%
%ADD12R,0.850000X0.850000*%
%TD*%
%TA.AperFunction,ComponentPad*%
%ADD13O,0.850000X0.850000*%
%TD*%
%TA.AperFunction,ViaPad*%
%ADD14C,0.800000*%
%TD*%
%TA.AperFunction,Conductor*%
%ADD15C,0.250000*%
%TD*%
G04 APERTURE END LIST*
D10*
%TO.P,PORTC,1,Pin_1*%
%TO.N,Net-(J5-Pin_1)*%
X111760000Y-93995000D03*
D11*
%TO.P,PORTC,2,Pin_2*%
%TO.N,Net-(J5-Pin_2)*%
X111760000Y-96535000D03*
%TO.P,PORTC,3,Pin_3*%
%TO.N,Net-(J5-Pin_3)*%
X111760000Y-99075000D03*
%TD*%
D10*
%TO.P,PORTA,1,Pin_1*%
%TO.N,Net-(J4-Pin_1)*%
X129540000Y-110490000D03*
D11*
%TO.P,PORTA,2,Pin_2*%
%TO.N,Net-(J4-Pin_2)*%
X132080000Y-110490000D03*
%TO.P,PORTA,3,Pin_3*%
%TO.N,Net-(J4-Pin_3)*%
X134620000Y-110490000D03*
%TO.P,PORTA,4,Pin_4*%
%TO.N,Net-(J4-Pin_4)*%
X137160000Y-110490000D03*
%TO.P,PORTA,5,Pin_5*%
%TO.N,Net-(J4-Pin_5)*%
X139700000Y-110490000D03*
%TO.P,PORTA,6,Pin_6*%
%TO.N,Net-(J4-Pin_6)*%
X142240000Y-110490000D03*
%TO.P,PORTA,7,Pin_7*%
%TO.N,Net-(J4-Pin_7)*%
X144780000Y-110490000D03*
%TO.P,PORTA,8,Pin_8*%
%TO.N,Net-(J4-Pin_8)*%
X147320000Y-110490000D03*
%TO.P,PORTA,9,Pin_9*%
%TO.N,Net-(J4-Pin_9)*%
X149860000Y-110490000D03*
%TO.P,PORTA,10,Pin_10*%
%TO.N,Net-(J4-Pin_10)*%
X152400000Y-110490000D03*
%TO.P,PORTA,11,Pin_11*%
%TO.N,Net-(J4-Pin_11)*%
X154940000Y-110490000D03*
%TD*%
D10*
%TO.P,SWD,1,Pin_1*%
%TO.N,+3.3VA*%
X154930000Y-82550000D03*
D11*
%TO.P,SWD,2,Pin_2*%
%TO.N,/SWDIO*%
X152390000Y-82550000D03*
%TO.P,SWD,3,Pin_3*%
%TO.N,/SWCLK*%
X149850000Y-82550000D03*
%TO.P,SWD,4,Pin_4*%
%TO.N,GND*%
X147310000Y-82550000D03*
%TD*%
D10*
%TO.P,PORTB,1,Pin_1*%
%TO.N,Net-(J3-Pin_1)*%
X143510000Y-82550000D03*
D11*
%TO.P,PORTB,2,Pin_2*%
%TO.N,Net-(J3-Pin_2)*%
X140970000Y-82550000D03*
%TO.P,PORTB,3,Pin_3*%
%TO.N,Net-(J3-Pin_3)*%
X138430000Y-82550000D03*
%TO.P,PORTB,4,Pin_4*%
%TO.N,Net-(J3-Pin_4)*%
X135890000Y-82550000D03*
%TO.P,PORTB,5,Pin_5*%
%TO.N,Net-(J3-Pin_5)*%
X133350000Y-82550000D03*
%TO.P,PORTB,6,Pin_6*%
%TO.N,Net-(J3-Pin_6)*%
X130810000Y-82550000D03*
%TO.P,PORTB,7,Pin_7*%
%TO.N,Net-(J3-Pin_7)*%
X128270000Y-82550000D03*
%TD*%
D12*
%TO.P,SW1,1,A*%
%TO.N,GND*%
X129810000Y-87630000D03*
D13*
%TO.P,SW1,2,B*%
%TO.N,/sw_boot0*%
X130810000Y-87630000D03*
%TO.P,SW1,3,C*%
%TO.N,+3.3V*%
X131810000Y-87630000D03*
%TD*%
D14*
%TO.N,+3.3V*%
X142082701Y-95092701D03*
X143660049Y-95564549D03*
X151130000Y-105410000D03*
X146740500Y-106680000D03*
%TO.N,/BOOT0*%
X140970000Y-88900000D03*
X138975500Y-87668306D03*
%TO.N,+3.3V*%
X151130000Y-97790000D03*
X151130000Y-95250000D03*
%TD*%
D15*
%TO.N,+3.3V*%
X142554549Y-95564549D02*
X142082701Y-95092701D01*
X143660049Y-95564549D02*
X142554549Y-95564549D01*
X149860000Y-106680000D02*
X151130000Y-105410000D01*
X146740500Y-106680000D02*
X149860000Y-106680000D01*
%TO.N,/BOOT0*%
X140457348Y-88387348D02*
X140970000Y-88900000D01*
X138975500Y-87668306D02*
X139738306Y-87668306D01*
X139738306Y-87668306D02*
X140457348Y-88387348D01*
%TO.N,+3.3V*%
X151130000Y-95250000D02*
X151130000Y-97790000D01*
%TD*%
%TA.AperFunction,Conductor*%
%TO.N,GND*%
G36*
X135105913Y-79882309D02*
G01*
X166976996Y-80010291D01*
X166977694Y-80010500D01*
X167028067Y-80010500D01*
X167028567Y-80010500D01*
X167845302Y-80030000D01*
X167848231Y-80030139D01*
X168593698Y-80083616D01*
X168616880Y-80085304D01*
X168663259Y-80088682D01*
X168666139Y-80088959D01*
X168764693Y-80100778D01*
X169281032Y-80162700D01*
X169481842Y-80187145D01*
X169484591Y-80187543D01*
X170040091Y-80281240D01*
X170210692Y-80310454D01*
X170294661Y-80324833D01*
X170297411Y-80325368D01*
X170816985Y-80438742D01*
X171101298Y-80501738D01*
X171596804Y-80634924D01*
X171897126Y-80716910D01*
X172372742Y-80869434D01*
X172681668Y-80970083D01*
X173038438Y-81103585D01*
X173139979Y-81141582D01*
X173453118Y-81260669D01*
X173895777Y-81450860D01*
X174070606Y-81527235D01*
X174209717Y-81588006D01*
X174637294Y-81796425D01*
X174930370Y-81941746D01*
X174949681Y-81951321D01*
X175362630Y-82177610D01*
X175671328Y-82349787D01*
X176069684Y-82593492D01*
X176250319Y-82706047D01*
X176372958Y-82782462D01*
X176756454Y-83043016D01*
X177052985Y-83248368D01*
X177421395Y-83525262D01*
X177709810Y-83746405D01*
X177914310Y-83915965D01*
X178062743Y-84039038D01*
X178341962Y-84275462D01*
X178678977Y-84583190D01*
X178947915Y-84834259D01*
X179268638Y-85156492D01*
X179526300Y-85421527D01*
X179830247Y-85757557D01*
X180075787Y-86035916D01*
X180362518Y-86385055D01*
X180595078Y-86675967D01*
X180761751Y-86899909D01*
X180864161Y-87037507D01*
X181083015Y-87340255D01*
X181277894Y-87630003D01*
X181321651Y-87695063D01*
X181333953Y-87713353D01*
X181538450Y-88027209D01*
X181770837Y-88411103D01*
X181960330Y-88735244D01*
X182049610Y-88899999D01*
X182168276Y-89118985D01*
X182173761Y-89129106D01*
X182347687Y-89462728D01*
X182356609Y-89481252D01*
X182541763Y-89865672D01*
X182658861Y-90119584D01*
X182699631Y-90207988D01*
X182874020Y-90619182D01*
X183015329Y-90969255D01*
X183169724Y-91387837D01*
X183294079Y-91744826D01*
X183428176Y-92169835D01*
X183535229Y-92532885D01*
X183648785Y-92963416D01*
X183738217Y-93331591D01*
X183831026Y-93766719D01*
X183902584Y-94139128D01*
X183974476Y-94577910D01*
X184027945Y-94953578D01*
X184078794Y-95395111D01*
X184114020Y-95773097D01*
X184143731Y-96216425D01*
X184160612Y-96595770D01*
X184169129Y-97039920D01*
X184167616Y-97419728D01*
X184154928Y-97863744D01*
X184135022Y-98243008D01*
X184101156Y-98685950D01*
X184062904Y-99063789D01*
X184007938Y-99504608D01*
X183951434Y-99880129D01*
X183875481Y-100317890D01*
X183800875Y-100690128D01*
X183704089Y-101123890D01*
X183611583Y-101491913D01*
X183494149Y-101920769D01*
X183384014Y-102283590D01*
X183246145Y-102706667D01*
X183118676Y-103063419D01*
X182960663Y-103479725D01*
X182816198Y-103829558D01*
X182638347Y-104238193D01*
X182477295Y-104580222D01*
X182279943Y-104980313D01*
X182102747Y-105313700D01*
X181886273Y-105704372D01*
X181693458Y-106028245D01*
X181458251Y-106408685D01*
X181250346Y-106722280D01*
X180996871Y-107091614D01*
X180864145Y-107272171D01*
X180814440Y-107339789D01*
X180774491Y-107394134D01*
X180503168Y-107751621D01*
X180266996Y-108042274D01*
X179978324Y-108387122D01*
X179729012Y-108665256D01*
X179423539Y-108996664D01*
X179161847Y-109261588D01*
X178840070Y-109578863D01*
X178566835Y-109829900D01*
X178229306Y-110132332D01*
X177945339Y-110368918D01*
X177592623Y-110655823D01*
X177298929Y-110877322D01*
X176931489Y-111148124D01*
X176629145Y-111353957D01*
X176247435Y-111608090D01*
X175937531Y-111797779D01*
X175542084Y-112034630D01*
X175225747Y-112207777D01*
X174817021Y-112426785D01*
X174495635Y-112582966D01*
X174073939Y-112783639D01*
X173748967Y-112922531D01*
X173314565Y-113104360D01*
X172987674Y-113225705D01*
X172540634Y-113388216D01*
X172213972Y-113491772D01*
X171753920Y-113634552D01*
X171430082Y-113720192D01*
X170956282Y-113842783D01*
X170638444Y-113910555D01*
X170149553Y-114012434D01*
X169842357Y-114062521D01*
X169335564Y-114143114D01*
X169046137Y-114176008D01*
X168517648Y-114234358D01*
X168514853Y-114234603D01*
X168256766Y-114251328D01*
X167694886Y-114286333D01*
X167692039Y-114286444D01*
X167490387Y-114289724D01*
X166870591Y-114298699D01*
X166867697Y-114298673D01*
X166797741Y-114296421D01*
X166051033Y-114271573D01*
X166048077Y-114271404D01*
X165237626Y-114205608D01*
X165234991Y-114205233D01*
X165230900Y-114204993D01*
X165207441Y-114202521D01*
X165202476Y-114204526D01*
X165189842Y-114205121D01*
X124206404Y-114043780D01*
X124195101Y-114040412D01*
X124164054Y-114043330D01*
X124160859Y-114043479D01*
X124157981Y-114043828D01*
X123348749Y-114101506D01*
X123345801Y-114101646D01*
X122598949Y-114119243D01*
X122531438Y-114120761D01*
X122528554Y-114120759D01*
X121909531Y-114105875D01*
X121709776Y-114100717D01*
X121706939Y-114100579D01*
X121145929Y-114060323D01*
X120890007Y-114041317D01*
X120887224Y-114041047D01*
X120359979Y-113977885D01*
X120072686Y-113942535D01*
X119567394Y-113857448D01*
X119262421Y-113804866D01*
X118775226Y-113698769D01*
X118459704Y-113628530D01*
X117987856Y-113501987D01*
X117666360Y-113413927D01*
X117208528Y-113267465D01*
X116884217Y-113161554D01*
X116439452Y-112995557D01*
X116115093Y-112871998D01*
X115683119Y-112686908D01*
X115360749Y-112545927D01*
X114941534Y-112342177D01*
X114622910Y-112184088D01*
X114216815Y-111962237D01*
X113903218Y-111787284D01*
X113510606Y-111547867D01*
X113248968Y-111384856D01*
X128389500Y-111384856D01*
X128389502Y-111384882D01*
X128392413Y-111409987D01*
X128392415Y-111409991D01*
X128437793Y-111512764D01*
X128437794Y-111512765D01*
X128517235Y-111592206D01*
X128620009Y-111637585D01*
X128645135Y-111640500D01*
X130434864Y-111640499D01*
X130434879Y-111640497D01*
X130434882Y-111640497D01*
X130459987Y-111637586D01*
X130459988Y-111637585D01*
X130459991Y-111637585D01*
X130562765Y-111592206D01*
X130642206Y-111512765D01*
X130687585Y-111409991D01*
X130690500Y-111384865D01*
X130690499Y-110646046D01*
X130710183Y-110579009D01*
X130762987Y-110533254D01*
X130832146Y-110523310D01*
X130895702Y-110552335D01*
X130933476Y-110611113D01*
X130937970Y-110634606D01*
X130944244Y-110702310D01*
X131002596Y-110907392D01*
X131002596Y-110907394D01*
X131097632Y-111098253D01*
X131170775Y-111195109D01*
X131226128Y-111268407D01*
X131383698Y-111412052D01*
X131564981Y-111524298D01*
X131763802Y-111601321D01*
X131973390Y-111640500D01*
X131973392Y-111640500D01*
X132186608Y-111640500D01*
X132186610Y-111640500D01*
X132396198Y-111601321D01*
X132595019Y-111524298D01*
X132776302Y-111412052D01*
X132933872Y-111268407D01*
X133062366Y-111098255D01*
X133130723Y-110960974D01*
X133157403Y-110907394D01*
X133157403Y-110907393D01*
X133157405Y-110907389D01*
X133215756Y-110702310D01*
X133226529Y-110586047D01*
X133252315Y-110521111D01*
X133294622Y-110490804D01*
X133403130Y-110490804D01*
X133439503Y-110511668D01*
X133471693Y-110573681D01*
X133473471Y-110586048D01*
X133484244Y-110702310D01*
X133542596Y-110907392D01*
X133542596Y-110907394D01*
X133637632Y-111098253D01*
X133710775Y-111195109D01*
X133766128Y-111268407D01*
X133923698Y-111412052D01*
X134104981Y-111524298D01*
X134303802Y-111601321D01*
X134513390Y-111640500D01*
X134513392Y-111640500D01*
X134726608Y-111640500D01*
X134726610Y-111640500D01*
X134936198Y-111601321D01*
X135135019Y-111524298D01*
X135316302Y-111412052D01*
X135473872Y-111268407D01*
X135602366Y-111098255D01*
X135670723Y-110960974D01*
X135697403Y-110907394D01*
X135697403Y-110907393D01*
X135697405Y-110907389D01*
X135755756Y-110702310D01*
X135766529Y-110586047D01*
X135792315Y-110521111D01*
X135834622Y-110490804D01*
X135943130Y-110490804D01*
X135979503Y-110511668D01*
X136011693Y-110573681D01*
X136013471Y-110586048D01*
X136024244Y-110702310D01*
X136082596Y-110907392D01*
X136082596Y-110907394D01*
X136177632Y-111098253D01*
X136250775Y-111195109D01*
X136306128Y-111268407D01*
X136463698Y-111412052D01*
X136644981Y-111524298D01*
X136843802Y-111601321D01*
X137053390Y-111640500D01*
X137053392Y-111640500D01*
X137266608Y-111640500D01*
X137266610Y-111640500D01*
X137476198Y-111601321D01*
X137675019Y-111524298D01*
X137856302Y-111412052D01*
X138013872Y-111268407D01*
X138142366Y-111098255D01*
X138210723Y-110960974D01*
X138237403Y-110907394D01*
X138237403Y-110907393D01*
X138237405Y-110907389D01*
X138295756Y-110702310D01*
X138306529Y-110586047D01*
X138332315Y-110521111D01*
X138374622Y-110490804D01*
X138483130Y-110490804D01*
X138519503Y-110511668D01*
X138551693Y-110573681D01*
X138553471Y-110586048D01*
X138564244Y-110702310D01*
X138622596Y-110907392D01*
X138622596Y-110907394D01*
X138717632Y-111098253D01*
X138790775Y-111195109D01*
X138846128Y-111268407D01*
X139003698Y-111412052D01*
X139184981Y-111524298D01*
X139383802Y-111601321D01*
X139593390Y-111640500D01*
X139593392Y-111640500D01*
X139806608Y-111640500D01*
X139806610Y-111640500D01*
X140016198Y-111601321D01*
X140215019Y-111524298D01*
X140396302Y-111412052D01*
X140553872Y-111268407D01*
X140682366Y-111098255D01*
X140750723Y-110960974D01*
X140777403Y-110907394D01*
X140777403Y-110907393D01*
X140777405Y-110907389D01*
X140835756Y-110702310D01*
X140846529Y-110586047D01*
X140872315Y-110521111D01*
X140914622Y-110490804D01*
X141023130Y-110490804D01*
X141059503Y-110511668D01*
X141091693Y-110573681D01*
X141093471Y-110586048D01*
X141104244Y-110702310D01*
X141162596Y-110907392D01*
X141162596Y-110907394D01*
X141257632Y-111098253D01*
X141330775Y-111195109D01*
X141386128Y-111268407D01*
X141543698Y-111412052D01*
X141724981Y-111524298D01*
X141923802Y-111601321D01*
X142133390Y-111640500D01*
X142133392Y-111640500D01*
X142346608Y-111640500D01*
X142346610Y-111640500D01*
X142556198Y-111601321D01*
X142755019Y-111524298D01*
X142936302Y-111412052D01*
X143093872Y-111268407D01*
X143222366Y-111098255D01*
X143290723Y-110960974D01*
X143317403Y-110907394D01*
X143317403Y-110907393D01*
X143317405Y-110907389D01*
X143375756Y-110702310D01*
X143386529Y-110586047D01*
X143412315Y-110521111D01*
X143454622Y-110490804D01*
X143563130Y-110490804D01*
X143599503Y-110511668D01*
X143631693Y-110573681D01*
X143633471Y-110586048D01*
X143644244Y-110702310D01*
X143702596Y-110907392D01*
X143702596Y-110907394D01*
X143797632Y-111098253D01*
X143870775Y-111195109D01*
X143926128Y-111268407D01*
X144083698Y-111412052D01*
X144264981Y-111524298D01*
X144463802Y-111601321D01*
X144673390Y-111640500D01*
X144673392Y-111640500D01*
X144886608Y-111640500D01*
X144886610Y-111640500D01*
X145096198Y-111601321D01*
X145295019Y-111524298D01*
X145476302Y-111412052D01*
X145633872Y-111268407D01*
X145762366Y-111098255D01*
X145830723Y-110960974D01*
X145857403Y-110907394D01*
X145857403Y-110907393D01*
X145857405Y-110907389D01*
X145915756Y-110702310D01*
X145926529Y-110586047D01*
X145952315Y-110521111D01*
X145994622Y-110490804D01*
X146103130Y-110490804D01*
X146139503Y-110511668D01*
X146171693Y-110573681D01*
X146173471Y-110586048D01*
X146184244Y-110702310D01*
X146242596Y-110907392D01*
X146242596Y-110907394D01*
X146337632Y-111098253D01*
X146410775Y-111195109D01*
X146466128Y-111268407D01*
X146623698Y-111412052D01*
X146804981Y-111524298D01*
X147003802Y-111601321D01*
X147213390Y-111640500D01*
X147213392Y-111640500D01*
X147426608Y-111640500D01*
X147426610Y-111640500D01*
X147636198Y-111601321D01*
X147835019Y-111524298D01*
X148016302Y-111412052D01*
X148173872Y-111268407D01*
X148302366Y-111098255D01*
X148370723Y-110960974D01*
X148397403Y-110907394D01*
X148397403Y-110907393D01*
X148397405Y-110907389D01*
X148455756Y-110702310D01*
X148466529Y-110586047D01*
X148492315Y-110521111D01*
X148534622Y-110490804D01*
X148643130Y-110490804D01*
X148679503Y-110511668D01*
X148711693Y-110573681D01*
X148713471Y-110586048D01*
X148724244Y-110702310D01*
X148782596Y-110907392D01*
X148782596Y-110907394D01*
X148877632Y-111098253D01*
X148950775Y-111195109D01*
X149006128Y-111268407D01*
X149163698Y-111412052D01*
X149344981Y-111524298D01*
X149543802Y-111601321D01*
X149753390Y-111640500D01*
X149753392Y-111640500D01*
X149966608Y-111640500D01*
X149966610Y-111640500D01*
X150176198Y-111601321D01*
X150375019Y-111524298D01*
X150556302Y-111412052D01*
X150713872Y-111268407D01*
X150842366Y-111098255D01*
X150910723Y-110960974D01*
X150937403Y-110907394D01*
X150937403Y-110907393D01*
X150937405Y-110907389D01*
X150995756Y-110702310D01*
X151006529Y-110586047D01*
X151032315Y-110521111D01*
X151074622Y-110490804D01*
X151183130Y-110490804D01*
X151219503Y-110511668D01*
X151251693Y-110573681D01*
X151253471Y-110586048D01*
X151264244Y-110702310D01*
X151322596Y-110907392D01*
X151322596Y-110907394D01*
X151417632Y-111098253D01*
X151490775Y-111195109D01*
X151546128Y-111268407D01*
X151703698Y-111412052D01*
X151884981Y-111524298D01*
X152083802Y-111601321D01*
X152293390Y-111640500D01*
X152293392Y-111640500D01*
X152506608Y-111640500D01*
X152506610Y-111640500D01*
X152716198Y-111601321D01*
X152915019Y-111524298D01*
X153096302Y-111412052D01*
X153253872Y-111268407D01*
X153382366Y-111098255D01*
X153450723Y-110960974D01*
X153477403Y-110907394D01*
X153477403Y-110907393D01*
X153477405Y-110907389D01*
X153535756Y-110702310D01*
X153546529Y-110586047D01*
X153572315Y-110521111D01*
X153614622Y-110490804D01*
X153723130Y-110490804D01*
X153759503Y-110511668D01*
X153791693Y-110573681D01*
X153793471Y-110586048D01*
X153804244Y-110702310D01*
X153862596Y-110907392D01*
X153862596Y-110907394D01*
X153957632Y-111098253D01*
X154030775Y-111195109D01*
X154086128Y-111268407D01*
X154243698Y-111412052D01*
X154424981Y-111524298D01*
X154623802Y-111601321D01*
X154833390Y-111640500D01*
X154833392Y-111640500D01*
X155046608Y-111640500D01*
X155046610Y-111640500D01*
X155256198Y-111601321D01*
X155455019Y-111524298D01*
X155636302Y-111412052D01*
X155793872Y-111268407D01*
X155922366Y-111098255D01*
X155990723Y-110960974D01*
X156017403Y-110907394D01*
X156017403Y-110907393D01*
X156017405Y-110907389D01*
X156075756Y-110702310D01*
X156095429Y-110490000D01*
X156075756Y-110277690D01*
X156017405Y-110072611D01*
X156017403Y-110072606D01*
X156017403Y-110072605D01*
X155922367Y-109881746D01*
X155793872Y-109711593D01*
X155666133Y-109595143D01*
X155636302Y-109567948D01*
X155455019Y-109455702D01*
X155455017Y-109455701D01*
X155355608Y-109417190D01*
X155256198Y-109378679D01*
X155046610Y-109339500D01*
X154833390Y-109339500D01*
X154623802Y-109378679D01*
X154623799Y-109378679D01*
X154623799Y-109378680D01*
X154424982Y-109455701D01*
X154424980Y-109455702D01*
X154243699Y-109567947D01*
X154086127Y-109711593D01*
X153957632Y-109881746D01*
X153862596Y-110072605D01*
X153862596Y-110072607D01*
X153804244Y-110277689D01*
X153793471Y-110393951D01*
X153767685Y-110458888D01*
X153723130Y-110490804D01*
X153614622Y-110490804D01*
X153616869Y-110489194D01*
X153580497Y-110468331D01*
X153548307Y-110406318D01*
X153546529Y-110393951D01*
X153543175Y-110357759D01*
X153535756Y-110277690D01*
X153477405Y-110072611D01*
X153477403Y-110072606D01*
X153477403Y-110072605D01*
X153382367Y-109881746D01*
X153253872Y-109711593D01*
X153126133Y-109595143D01*
X153096302Y-109567948D01*
X152915019Y-109455702D01*
X152915017Y-109455701D01*
X152815608Y-109417190D01*
X152716198Y-109378679D01*
X152506610Y-109339500D01*
X152293390Y-109339500D01*
X152083802Y-109378679D01*
X152083799Y-109378679D01*
X152083799Y-109378680D01*
X151884982Y-109455701D01*
X151884980Y-109455702D01*
X151703699Y-109567947D01*
X151546127Y-109711593D01*
X151417632Y-109881746D01*
X151322596Y-110072605D01*
X151322596Y-110072607D01*
X151264244Y-110277689D01*
X151253471Y-110393951D01*
X151227685Y-110458888D01*
X151183130Y-110490804D01*
X151074622Y-110490804D01*
X151076869Y-110489194D01*
X151040497Y-110468331D01*
X151008307Y-110406318D01*
X151006529Y-110393951D01*
X151003175Y-110357759D01*
X150995756Y-110277690D01*
X150937405Y-110072611D01*
X150937403Y-110072606D01*
X150937403Y-110072605D01*
X150842367Y-109881746D01*
X150713872Y-109711593D01*
X150586133Y-109595143D01*
X150556302Y-109567948D01*
X150375019Y-109455702D01*
X150375017Y-109455701D01*
X150275608Y-109417190D01*
X150176198Y-109378679D01*
X149966610Y-109339500D01*
X149753390Y-109339500D01*
X149543802Y-109378679D01*
X149543799Y-109378679D01*
X149543799Y-109378680D01*
X149344982Y-109455701D01*
X149344980Y-109455702D01*
X149163699Y-109567947D01*
X149006127Y-109711593D01*
X148877632Y-109881746D01*
X148782596Y-110072605D01*
X148782596Y-110072607D01*
X148724244Y-110277689D01*
X148713471Y-110393951D01*
X148687685Y-110458888D01*
X148643130Y-110490804D01*
X148534622Y-110490804D01*
X148536869Y-110489194D01*
X148500497Y-110468331D01*
X148468307Y-110406318D01*
X148466529Y-110393951D01*
X148463175Y-110357759D01*
X148455756Y-110277690D01*
X148397405Y-110072611D01*
X148397403Y-110072606D01*
X148397403Y-110072605D01*
X148302367Y-109881746D01*
X148173872Y-109711593D01*
X148046133Y-109595143D01*
X148016302Y-109567948D01*
X147835019Y-109455702D01*
X147835017Y-109455701D01*
X147735608Y-109417190D01*
X147636198Y-109378679D01*
X147426610Y-109339500D01*
X147213390Y-109339500D01*
X147003802Y-109378679D01*
X147003799Y-109378679D01*
X147003799Y-109378680D01*
X146804982Y-109455701D01*
X146804980Y-109455702D01*
X146623699Y-109567947D01*
X146466127Y-109711593D01*
X146337632Y-109881746D01*
X146242596Y-110072605D01*
X146242596Y-110072607D01*
X146184244Y-110277689D01*
X146173471Y-110393951D01*
X146147685Y-110458888D01*
X146103130Y-110490804D01*
X145994622Y-110490804D01*
X145996869Y-110489194D01*
X145960497Y-110468331D01*
X145928307Y-110406318D01*
X145926529Y-110393951D01*
X145923175Y-110357759D01*
X145915756Y-110277690D01*
X145857405Y-110072611D01*
X145857403Y-110072606D01*
X145857403Y-110072605D01*
X145762367Y-109881746D01*
X145633872Y-109711593D01*
X145506133Y-109595143D01*
X145476302Y-109567948D01*
X145295019Y-109455702D01*
X145295017Y-109455701D01*
X145195608Y-109417190D01*
X145096198Y-109378679D01*
X144886610Y-109339500D01*
X144673390Y-109339500D01*
X144463802Y-109378679D01*
X144463799Y-109378679D01*
X144463799Y-109378680D01*
X144264982Y-109455701D01*
X144264980Y-109455702D01*
X144083699Y-109567947D01*
X143926127Y-109711593D01*
X143797632Y-109881746D01*
X143702596Y-110072605D01*
X143702596Y-110072607D01*
X143644244Y-110277689D01*
X143633471Y-110393951D01*
X143607685Y-110458888D01*
X143563130Y-110490804D01*
X143454622Y-110490804D01*
X143456869Y-110489194D01*
X143420497Y-110468331D01*
X143388307Y-110406318D01*
X143386529Y-110393951D01*
X143383175Y-110357759D01*
X143375756Y-110277690D01*
X143317405Y-110072611D01*
X143317403Y-110072606D01*
X143317403Y-110072605D01*
X143222367Y-109881746D01*
X143093872Y-109711593D01*
X142966133Y-109595143D01*
X142936302Y-109567948D01*
X142755019Y-109455702D01*
X142755017Y-109455701D01*
X142655608Y-109417190D01*
X142556198Y-109378679D01*
X142346610Y-109339500D01*
X142133390Y-109339500D01*
X141923802Y-109378679D01*
X141923799Y-109378679D01*
X141923799Y-109378680D01*
X141724982Y-109455701D01*
X141724980Y-109455702D01*
X141543699Y-109567947D01*
X141386127Y-109711593D01*
X141257632Y-109881746D01*
X141162596Y-110072605D01*
X141162596Y-110072607D01*
X141104244Y-110277689D01*
X141093471Y-110393951D01*
X141067685Y-110458888D01*
X141023130Y-110490804D01*
X140914622Y-110490804D01*
X140916869Y-110489194D01*
X140880497Y-110468331D01*
X140848307Y-110406318D01*
X140846529Y-110393951D01*
X140843175Y-110357759D01*
X140835756Y-110277690D01*
X140777405Y-110072611D01*
X140777403Y-110072606D01*
X140777403Y-110072605D01*
X140682367Y-109881746D01*
X140553872Y-109711593D01*
X140426133Y-109595143D01*
X140396302Y-109567948D01*
X140215019Y-109455702D01*
X140215017Y-109455701D01*
X140115608Y-109417190D01*
X140016198Y-109378679D01*
X139806610Y-109339500D01*
X139593390Y-109339500D01*
X139383802Y-109378679D01*
X139383799Y-109378679D01*
X139383799Y-109378680D01*
X139184982Y-109455701D01*
X139184980Y-109455702D01*
X139003699Y-109567947D01*
X138846127Y-109711593D01*
X138717632Y-109881746D01*
X138622596Y-110072605D01*
X138622596Y-110072607D01*
X138564244Y-110277689D01*
X138553471Y-110393951D01*
X138527685Y-110458888D01*
X138483130Y-110490804D01*
X138374622Y-110490804D01*
X138376869Y-110489194D01*
X138340497Y-110468331D01*
X138308307Y-110406318D01*
X138306529Y-110393951D01*
X138303175Y-110357759D01*
X138295756Y-110277690D01*
X138237405Y-110072611D01*
X138237403Y-110072606D01*
X138237403Y-110072605D01*
X138142367Y-109881746D01*
X138013872Y-109711593D01*
X137886133Y-109595143D01*
X137856302Y-109567948D01*
X137675019Y-109455702D01*
X137675017Y-109455701D01*
X137575608Y-109417190D01*
X137476198Y-109378679D01*
X137266610Y-109339500D01*
X137053390Y-109339500D01*
X136843802Y-109378679D01*
X136843799Y-109378679D01*
X136843799Y-109378680D01*
X136644982Y-109455701D01*
X136644980Y-109455702D01*
X136463699Y-109567947D01*
X136306127Y-109711593D01*
X136177632Y-109881746D01*
X136082596Y-110072605D01*
X136082596Y-110072607D01*
X136024244Y-110277689D01*
X136013471Y-110393951D01*
X135987685Y-110458888D01*
X135943130Y-110490804D01*
X135834622Y-110490804D01*
X135836869Y-110489194D01*
X135800497Y-110468331D01*
X135768307Y-110406318D01*
X135766529Y-110393951D01*
X135763175Y-110357759D01*
X135755756Y-110277690D01*
X135697405Y-110072611D01*
X135697403Y-110072606D01*
X135697403Y-110072605D01*
X135602367Y-109881746D01*
X135473872Y-109711593D01*
X135346133Y-109595143D01*
X135316302Y-109567948D01*
X135135019Y-109455702D01*
X135135017Y-109455701D01*
X135035608Y-109417190D01*
X134936198Y-109378679D01*
X134726610Y-109339500D01*
X134513390Y-109339500D01*
X134303802Y-109378679D01*
X134303799Y-109378679D01*
X134303799Y-109378680D01*
X134104982Y-109455701D01*
X134104980Y-109455702D01*
X133923699Y-109567947D01*
X133766127Y-109711593D01*
X133637632Y-109881746D01*
X133542596Y-110072605D01*
X133542596Y-110072607D01*
X133484244Y-110277689D01*
X133473471Y-110393951D01*
X133447685Y-110458888D01*
X133403130Y-110490804D01*
X133294622Y-110490804D01*
X133296869Y-110489194D01*
X133260497Y-110468331D01*
X133228307Y-110406318D01*
X133226529Y-110393951D01*
X133223175Y-110357759D01*
X133215756Y-110277690D01*
X133157405Y-110072611D01*
X133157403Y-110072606D01*
X133157403Y-110072605D01*
X133062367Y-109881746D01*
X132933872Y-109711593D01*
X132806133Y-109595143D01*
X132776302Y-109567948D01*
X132595019Y-109455702D01*
X132595017Y-109455701D01*
X132495608Y-109417190D01*
X132396198Y-109378679D01*
X132186610Y-109339500D01*
X131973390Y-109339500D01*
X131763802Y-109378679D01*
X131763799Y-109378679D01*
X131763799Y-109378680D01*
X131564982Y-109455701D01*
X131564980Y-109455702D01*
X131383699Y-109567947D01*
X131226127Y-109711593D01*
X131097632Y-109881746D01*
X131002596Y-110072605D01*
X131002596Y-110072607D01*
X130944244Y-110277689D01*
X130937970Y-110345394D01*
X130912183Y-110410331D01*
X130855383Y-110451018D01*
X130785602Y-110454538D01*
X130724995Y-110419772D01*
X130692806Y-110357759D01*
X130690499Y-110333952D01*
X130690499Y-109595143D01*
X130690499Y-109595136D01*
X130688612Y-109578863D01*
X130687586Y-109570012D01*
X130687585Y-109570010D01*
X130687585Y-109570009D01*
X130642206Y-109467235D01*
X130562765Y-109387794D01*
X130542124Y-109378680D01*
X130459992Y-109342415D01*
X130434865Y-109339500D01*
X128645143Y-109339500D01*
X128645117Y-109339502D01*
X128620012Y-109342413D01*
X128620008Y-109342415D01*
X128517235Y-109387793D01*
X128437794Y-109467234D01*
X128392415Y-109570006D01*
X128392415Y-109570008D01*
X128389500Y-109595131D01*
X128389500Y-111384856D01*
X113248968Y-111384856D01*
X113203412Y-111356473D01*
X112824596Y-111099975D01*
X112525070Y-110892634D01*
X112160521Y-110619627D01*
X111869722Y-110396811D01*
X111519978Y-110107927D01*
X111238915Y-109870176D01*
X110908841Y-109570008D01*
X110904410Y-109565979D01*
X110634081Y-109313931D01*
X110315376Y-108995111D01*
X110056601Y-108729348D01*
X109857682Y-108510452D01*
X109754220Y-108396599D01*
X109507797Y-108117764D01*
X109369328Y-107950000D01*
X115484341Y-107950000D01*
X115504936Y-108185403D01*
X115504938Y-108185413D01*
X115566094Y-108413655D01*
X115566096Y-108413659D01*
X115566097Y-108413663D01*
X115592604Y-108470506D01*
X115665964Y-108627828D01*
X115665965Y-108627830D01*
X115801505Y-108821402D01*
X115968597Y-108988494D01*
X116162169Y-109124034D01*
X116162171Y-109124035D01*
X116376337Y-109223903D01*
X116604592Y-109285063D01*
X116781034Y-109300500D01*
X116898966Y-109300500D01*
X117075408Y-109285063D01*
X117303663Y-109223903D01*
X117517829Y-109124035D01*
X117711401Y-108988495D01*
X117878495Y-108821401D01*
X118014035Y-108627830D01*
X118113903Y-108413663D01*
X118175063Y-108185408D01*
X118195659Y-107950000D01*
X172634341Y-107950000D01*
X172654936Y-108185403D01*
X172654938Y-108185413D01*
X172716094Y-108413655D01*
X172716096Y-108413659D01*
X172716097Y-108413663D01*
X172742604Y-108470506D01*
X172815964Y-108627828D01*
X172815965Y-108627830D01*
X172951505Y-108821402D01*
X173118597Y-108988494D01*
X173312169Y-109124034D01*
X173312171Y-109124035D01*
X173526337Y-109223903D01*
X173754592Y-109285063D01*
X173931034Y-109300500D01*
X174048966Y-109300500D01*
X174225408Y-109285063D01*
X174453663Y-109223903D01*
X174667829Y-109124035D01*
X174861401Y-108988495D01*
X175028495Y-108821401D01*
X175164035Y-108627830D01*
X175263903Y-108413663D01*
X175325063Y-108185408D01*
X175345659Y-107950000D01*
X175325063Y-107714592D01*
X175263903Y-107486337D01*
X175164035Y-107272171D01*
X175164034Y-107272169D01*
X175028494Y-107078597D01*
X174861402Y-106911505D01*
X174667830Y-106775965D01*
X174667828Y-106775964D01*
X174552702Y-106722280D01*
X174453663Y-106676097D01*
X174453659Y-106676096D01*
X174453655Y-106676094D01*
X174225413Y-106614938D01*
X174225403Y-106614936D01*
X174048966Y-106599500D01*
X173931034Y-106599500D01*
X173754596Y-106614936D01*
X173754586Y-106614938D01*
X173526344Y-106676094D01*
X173526335Y-106676098D01*
X173312171Y-106775964D01*
X173312169Y-106775965D01*
X173118597Y-106911505D01*
X172951506Y-107078597D01*
X172951501Y-107078604D01*
X172815967Y-107272165D01*
X172815965Y-107272169D01*
X172784433Y-107339790D01*
X172718783Y-107480578D01*
X172716098Y-107486335D01*
X172716094Y-107486344D01*
X172654938Y-107714586D01*
X172654936Y-107714596D01*
X172634341Y-107949999D01*
X172634341Y-107950000D01*
X118195659Y-107950000D01*
X118175063Y-107714592D01*
X118113903Y-107486337D01*
X118014035Y-107272171D01*
X118014034Y-107272169D01*
X117878494Y-107078597D01*
X117711402Y-106911505D01*
X117517830Y-106775965D01*
X117517828Y-106775964D01*
X117402702Y-106722280D01*
X117312033Y-106680000D01*
X146034855Y-106680000D01*
X146055359Y-106848869D01*
X146055360Y-106848874D01*
X146115682Y-107007931D01*
X146164465Y-107078604D01*
X146212317Y-107147929D01*
X146260930Y-107190996D01*
X146339650Y-107260736D01*
X146490273Y-107339789D01*
X146490275Y-107339790D01*
X146655444Y-107380500D01*
X146825556Y-107380500D01*
X146990725Y-107339790D01*
X147119565Y-107272169D01*
X147141349Y-107260736D01*
X147141350Y-107260734D01*
X147141352Y-107260734D01*
X147268683Y-107147929D01*
X147268685Y-107147925D01*
X147269267Y-107147270D01*
X147269812Y-107146927D01*
X147274297Y-107142955D01*
X147274957Y-107143700D01*
X147328458Y-107110145D01*
X147362080Y-107105500D01*
X149927392Y-107105500D01*
X149927393Y-107105500D01*
X149950360Y-107098036D01*
X149969276Y-107093495D01*
X149993126Y-107089719D01*
X150014636Y-107078757D01*
X150032614Y-107071310D01*
X150055581Y-107063849D01*
X150075118Y-107049653D01*
X150091706Y-107039488D01*
X150113220Y-107028528D01*
X150208528Y-106933220D01*
X150994928Y-106146818D01*
X151056251Y-106113334D01*
X151082609Y-106110500D01*
X151215056Y-106110500D01*
X151380225Y-106069790D01*
X151474691Y-106020210D01*
X151530849Y-105990736D01*
X151530850Y-105990734D01*
X151530852Y-105990734D01*
X151658183Y-105877929D01*
X151754818Y-105737930D01*
X151815140Y-105578872D01*
X151835645Y-105410000D01*
X151815140Y-105241128D01*
X151754818Y-105082070D01*
X151658183Y-104942071D01*
X151563316Y-104858026D01*
X151530849Y-104829263D01*
X151380226Y-104750210D01*
X151215056Y-104709500D01*
X151044944Y-104709500D01*
X150879773Y-104750210D01*
X150729150Y-104829263D01*
X150601816Y-104942072D01*
X150505182Y-105082068D01*
X150444860Y-105241125D01*
X150444859Y-105241130D01*
X150424355Y-105410000D01*
X150424355Y-105410003D01*
X150428326Y-105442715D01*
X150416864Y-105511638D01*
X150392911Y-105545339D01*
X149720071Y-106218181D01*
X149658748Y-106251666D01*
X149632390Y-106254500D01*
X147362080Y-106254500D01*
X147295041Y-106234815D01*
X147274299Y-106217042D01*
X147274297Y-106217045D01*
X147274127Y-106216894D01*
X147269267Y-106212730D01*
X147268685Y-106212073D01*
X147141349Y-106099263D01*
X146990726Y-106020210D01*
X146825556Y-105979500D01*
X146655444Y-105979500D01*
X146490273Y-106020210D01*
X146339650Y-106099263D01*
X146212316Y-106212072D01*
X146115682Y-106352068D01*
X146055360Y-106511125D01*
X146055359Y-106511130D01*
X146034855Y-106680000D01*
X117312033Y-106680000D01*
X117303663Y-106676097D01*
X117303659Y-106676096D01*
X117303655Y-106676094D01*
X117075413Y-106614938D01*
X117075403Y-106614936D01*
X116898966Y-106599500D01*
X116781034Y-106599500D01*
X116604596Y-106614936D01*
X116604586Y-106614938D01*
X116376344Y-106676094D01*
X116376335Y-106676098D01*
X116162171Y-106775964D01*
X116162169Y-106775965D01*
X115968597Y-106911505D01*
X115801506Y-107078597D01*
X115801501Y-107078604D01*
X115665967Y-107272165D01*
X115665965Y-107272169D01*
X115634433Y-107339790D01*
X115568783Y-107480578D01*
X115566098Y-107486335D01*
X115566094Y-107486344D01*
X115504938Y-107714586D01*
X115504936Y-107714596D01*
X115484341Y-107949999D01*
X115484341Y-107950000D01*
X109369328Y-107950000D01*
X109222252Y-107771807D01*
X108988934Y-107480589D01*
X108720736Y-107122193D01*
X108660793Y-107039486D01*
X108501226Y-106819322D01*
X108250830Y-106449230D01*
X108099834Y-106218181D01*
X108045764Y-106135445D01*
X107813636Y-105754477D01*
X107803930Y-105737931D01*
X107623589Y-105430520D01*
X107581005Y-105352503D01*
X107410139Y-105039468D01*
X107235714Y-104706249D01*
X107041316Y-104305906D01*
X106882981Y-103964213D01*
X106825342Y-103829558D01*
X106708028Y-103555491D01*
X106566212Y-103206146D01*
X106411038Y-102789918D01*
X106286128Y-102433763D01*
X106238147Y-102283590D01*
X106151042Y-102010966D01*
X106043383Y-101648886D01*
X105946473Y-101287011D01*
X105928645Y-101220439D01*
X105838523Y-100853286D01*
X105744345Y-100420069D01*
X105672031Y-100048862D01*
X105598590Y-99611769D01*
X105544265Y-99237365D01*
X105524873Y-99075000D01*
X110604571Y-99075000D01*
X110624244Y-99287310D01*
X110682596Y-99492392D01*
X110682596Y-99492394D01*
X110777632Y-99683253D01*
X110906127Y-99853406D01*
X110906128Y-99853407D01*
X111063698Y-99997052D01*
X111244981Y-100109298D01*
X111443802Y-100186321D01*
X111653390Y-100225500D01*
X111653392Y-100225500D01*
X111866608Y-100225500D01*
X111866610Y-100225500D01*
X112076198Y-100186321D01*
X112275019Y-100109298D01*
X112456302Y-99997052D01*
X112613872Y-99853407D01*
X112742366Y-99683255D01*
X112837405Y-99492389D01*
X112895756Y-99287310D01*
X112915429Y-99075000D01*
X112895756Y-98862690D01*
X112837405Y-98657611D01*
X112837403Y-98657606D01*
X112837403Y-98657605D01*
X112742367Y-98466746D01*
X112613872Y-98296593D01*
X112571460Y-98257929D01*
X112456302Y-98152948D01*
X112275019Y-98040702D01*
X112275017Y-98040701D01*
X112175608Y-98002190D01*
X112076198Y-97963679D01*
X111879385Y-97926888D01*
X111817106Y-97895221D01*
X111781833Y-97834908D01*
X111783720Y-97790000D01*
X150424355Y-97790000D01*
X150444859Y-97958869D01*
X150444860Y-97958874D01*
X150505182Y-98117931D01*
X150529353Y-98152948D01*
X150601817Y-98257929D01*
X150707505Y-98351560D01*
X150729150Y-98370736D01*
X150879773Y-98449789D01*
X150879775Y-98449790D01*
X151044944Y-98490500D01*
X151215056Y-98490500D01*
X151380225Y-98449790D01*
X151459692Y-98408081D01*
X151530849Y-98370736D01*
X151530850Y-98370734D01*
X151530852Y-98370734D01*
X151658183Y-98257929D01*
X151754818Y-98117930D01*
X151815140Y-97958872D01*
X151835645Y-97790000D01*
X151815140Y-97621128D01*
X151754818Y-97462070D01*
X151751354Y-97457052D01*
X151699807Y-97382374D01*
X151658183Y-97322071D01*
X151658181Y-97322069D01*
X151597273Y-97268109D01*
X151560146Y-97208920D01*
X151555500Y-97175294D01*
X151555500Y-95864705D01*
X151575185Y-95797666D01*
X151597274Y-95771889D01*
X151658182Y-95717930D01*
X151730647Y-95612948D01*
X151754818Y-95577930D01*
X151815140Y-95418872D01*
X151835645Y-95250000D01*
X151815140Y-95081128D01*
X151754818Y-94922070D01*
X151732590Y-94889868D01*
X151714769Y-94864049D01*
X151658183Y-94782071D01*
X151530852Y-94669266D01*
X151530849Y-94669263D01*
X151380226Y-94590210D01*
X151215056Y-94549500D01*
X151044944Y-94549500D01*
X150879773Y-94590210D01*
X150729150Y-94669263D01*
X150601816Y-94782072D01*
X150505182Y-94922068D01*
X150444860Y-95081125D01*
X150444859Y-95081130D01*
X150424355Y-95250000D01*
X150444859Y-95418869D01*
X150444860Y-95418874D01*
X150505182Y-95577931D01*
X150601817Y-95717930D01*
X150662726Y-95771889D01*
X150699853Y-95831078D01*
X150704500Y-95864705D01*
X150704500Y-97175294D01*
X150684815Y-97242333D01*
X150662727Y-97268109D01*
X150601818Y-97322069D01*
X150505182Y-97462068D01*
X150444860Y-97621125D01*
X150444859Y-97621130D01*
X150424355Y-97790000D01*
X111783720Y-97790000D01*
X111784767Y-97765100D01*
X111824976Y-97707960D01*
X111879384Y-97683111D01*
X112076198Y-97646321D01*
X112275019Y-97569298D01*
X112456302Y-97457052D01*
X112613872Y-97313407D01*
X112742366Y-97143255D01*
X112837405Y-96952389D01*
X112895756Y-96747310D01*
X112915429Y-96535000D01*
X112895756Y-96322690D01*
X112837405Y-96117611D01*
X112837403Y-96117606D01*
X112837403Y-96117605D01*
X112742367Y-95926746D01*
X112613872Y-95756593D01*
X112571460Y-95717929D01*
X112456302Y-95612948D01*
X112275019Y-95500702D01*
X112275017Y-95500701D01*
X112175608Y-95462190D01*
X112076198Y-95423679D01*
X111903456Y-95391387D01*
X111841176Y-95359719D01*
X111805903Y-95299407D01*
X111808837Y-95229599D01*
X111849046Y-95172459D01*
X111913764Y-95146128D01*
X111926233Y-95145499D01*
X112654864Y-95145499D01*
X112654879Y-95145497D01*
X112654882Y-95145497D01*
X112679987Y-95142586D01*
X112679988Y-95142585D01*
X112679991Y-95142585D01*
X112782765Y-95097206D01*
X112787270Y-95092701D01*
X141377056Y-95092701D01*
X141397560Y-95261570D01*
X141397561Y-95261575D01*
X141457883Y-95420632D01*
X141513152Y-95500701D01*
X141554518Y-95560630D01*
X141660206Y-95654261D01*
X141681851Y-95673437D01*
X141796145Y-95733423D01*
X141832476Y-95752491D01*
X141997645Y-95793201D01*
X142130091Y-95793201D01*
X142197130Y-95812886D01*
X142217772Y-95829520D01*
X142301329Y-95913077D01*
X142322848Y-95924041D01*
X142339427Y-95934200D01*
X142358968Y-95948398D01*
X142381930Y-95955858D01*
X142399903Y-95963302D01*
X142421423Y-95974268D01*
X142445273Y-95978044D01*
X142464194Y-95982588D01*
X142486038Y-95989685D01*
X142487156Y-95990049D01*
X142521061Y-95990049D01*
X143038469Y-95990049D01*
X143105508Y-96009734D01*
X143126249Y-96027506D01*
X143126252Y-96027504D01*
X143126421Y-96027654D01*
X143131282Y-96031819D01*
X143131863Y-96032475D01*
X143259199Y-96145285D01*
X143394745Y-96216425D01*
X143409824Y-96224339D01*
X143574993Y-96265049D01*
X143745105Y-96265049D01*
X143910274Y-96224339D01*
X143989741Y-96182630D01*
X144060898Y-96145285D01*
X144060899Y-96145283D01*
X144060901Y-96145283D01*
X144188232Y-96032478D01*
X144284867Y-95892479D01*
X144345189Y-95733421D01*
X144365694Y-95564549D01*
X144345189Y-95395677D01*
X144343562Y-95391388D01*
X144294331Y-95261573D01*
X144284867Y-95236619D01*
X144280021Y-95229599D01*
X144222405Y-95146128D01*
X144188232Y-95096620D01*
X144060901Y-94983815D01*
X144060898Y-94983812D01*
X143910275Y-94904759D01*
X143745105Y-94864049D01*
X143574993Y-94864049D01*
X143409822Y-94904759D01*
X143259199Y-94983812D01*
X143131863Y-95096622D01*
X143131282Y-95097279D01*
X143130736Y-95097621D01*
X143126252Y-95101594D01*
X143125591Y-95100848D01*
X143072091Y-95134404D01*
X143038469Y-95139049D01*
X142903828Y-95139049D01*
X142836789Y-95119364D01*
X142791034Y-95066560D01*
X142780732Y-95029996D01*
X142767841Y-94923831D01*
X142767840Y-94923826D01*
X142707518Y-94764769D01*
X142641594Y-94669263D01*
X142610884Y-94624772D01*
X142483553Y-94511967D01*
X142483550Y-94511964D01*
X142332927Y-94432911D01*
X142167757Y-94392201D01*
X141997645Y-94392201D01*
X141832474Y-94432911D01*
X141681851Y-94511964D01*
X141554517Y-94624773D01*
X141457883Y-94764769D01*
X141397561Y-94923826D01*
X141397560Y-94923831D01*
X141377056Y-95092701D01*
X112787270Y-95092701D01*
X112862206Y-95017765D01*
X112907585Y-94914991D01*
X112910500Y-94889865D01*
X112910499Y-93100136D01*
X112908645Y-93084149D01*
X112907586Y-93075012D01*
X112907585Y-93075010D01*
X112907585Y-93075009D01*
X112862206Y-92972235D01*
X112782765Y-92892794D01*
X112782763Y-92892793D01*
X112679992Y-92847415D01*
X112654865Y-92844500D01*
X110865143Y-92844500D01*
X110865117Y-92844502D01*
X110840012Y-92847413D01*
X110840008Y-92847415D01*
X110737235Y-92892793D01*
X110657794Y-92972234D01*
X110612415Y-93075006D01*
X110612415Y-93075008D01*
X110609500Y-93100131D01*
X110609500Y-94889856D01*
X110609502Y-94889882D01*
X110612413Y-94914987D01*
X110612415Y-94914991D01*
X110657793Y-95017764D01*
X110657794Y-95017765D01*
X110737235Y-95097206D01*
X110840009Y-95142585D01*
X110865135Y-95145500D01*
X111593758Y-95145499D01*
X111660795Y-95165183D01*
X111706550Y-95217987D01*
X111716494Y-95287146D01*
X111687469Y-95350702D01*
X111628691Y-95388476D01*
X111616542Y-95391388D01*
X111593588Y-95395679D01*
X111443802Y-95423679D01*
X111443800Y-95423679D01*
X111443798Y-95423680D01*
X111244982Y-95500701D01*
X111244980Y-95500702D01*
X111063699Y-95612947D01*
X110906127Y-95756593D01*
X110777632Y-95926746D01*
X110682596Y-96117605D01*
X110682596Y-96117607D01*
X110624244Y-96322689D01*
X110604571Y-96534999D01*
X110604571Y-96535000D01*
X110624244Y-96747310D01*
X110682596Y-96952392D01*
X110682596Y-96952394D01*
X110777632Y-97143253D01*
X110847306Y-97235515D01*
X110906128Y-97313407D01*
X111063698Y-97457052D01*
X111244981Y-97569298D01*
X111443802Y-97646321D01*
X111640613Y-97683111D01*
X111702893Y-97714779D01*
X111738166Y-97775092D01*
X111735232Y-97844900D01*
X111695023Y-97902040D01*
X111640613Y-97926888D01*
X111443802Y-97963679D01*
X111443799Y-97963679D01*
X111443799Y-97963680D01*
X111244982Y-98040701D01*
X111244980Y-98040702D01*
X111063699Y-98152947D01*
X110906127Y-98296593D01*
X110777632Y-98466746D01*
X110682596Y-98657605D01*
X110682596Y-98657607D01*
X110624244Y-98862689D01*
X110604571Y-99074999D01*
X110604571Y-99075000D01*
X105524873Y-99075000D01*
X105491713Y-98797349D01*
X105455525Y-98420682D01*
X105423973Y-97978753D01*
X105406014Y-97600761D01*
X105395526Y-97157862D01*
X105395624Y-97039920D01*
X105395839Y-96779392D01*
X105406435Y-96336482D01*
X105417200Y-96117607D01*
X105425024Y-95958493D01*
X105425213Y-95955857D01*
X105456686Y-95516512D01*
X105493488Y-95140038D01*
X105546163Y-94699894D01*
X105601075Y-94325812D01*
X105674664Y-93888487D01*
X105747530Y-93517726D01*
X105841901Y-93084128D01*
X105932509Y-92717622D01*
X106047494Y-92288664D01*
X106155575Y-91927362D01*
X106290954Y-91504002D01*
X106416234Y-91148683D01*
X106571761Y-90731820D01*
X106713825Y-90383523D01*
X106889224Y-89974028D01*
X107047705Y-89633504D01*
X107242652Y-89232276D01*
X107417102Y-88900355D01*
X107631217Y-88508309D01*
X107821120Y-88185830D01*
X108007566Y-87880000D01*
X128885000Y-87880000D01*
X128885000Y-88102844D01*
X128891401Y-88162372D01*
X128891403Y-88162379D01*
X128941645Y-88297086D01*
X128941649Y-88297093D01*
X129027809Y-88412187D01*
X129027812Y-88412190D01*
X129142906Y-88498350D01*
X129142913Y-88498354D01*
X129277620Y-88548596D01*
X129277627Y-88548598D01*
X129337155Y-88554999D01*
X129337172Y-88555000D01*
X129560000Y-88555000D01*
X129560000Y-87880000D01*
X128885000Y-87880000D01*
X108007566Y-87880000D01*
X108054040Y-87803768D01*
X108168014Y-87630000D01*
X129555102Y-87630000D01*
X129574505Y-87727545D01*
X129629760Y-87810240D01*
X129712455Y-87865495D01*
X129785376Y-87880000D01*
X129834624Y-87880000D01*
X129907545Y-87865495D01*
X129990240Y-87810240D01*
X130045495Y-87727545D01*
X130060000Y-87654623D01*
X130060000Y-88555000D01*
X130282828Y-88555000D01*
X130282844Y-88554999D01*
X130342372Y-88548598D01*
X130342379Y-88548596D01*
X130477086Y-88498354D01*
X130477088Y-88498352D01*
X130592186Y-88412190D01*
X130592187Y-88412189D01*
X130602531Y-88398373D01*
X130658465Y-88356502D01*
X130715682Y-88349464D01*
X130809997Y-88360091D01*
X130810000Y-88360091D01*
X130810004Y-88360091D01*
X130972455Y-88341787D01*
X130972456Y-88341786D01*
X130972461Y-88341786D01*
X131126775Y-88287789D01*
X131244028Y-88214113D01*
X131311264Y-88195113D01*
X131375971Y-88214113D01*
X131493225Y-88287789D01*
X131647539Y-88341786D01*
X131647542Y-88341786D01*
X131647544Y-88341787D01*
X131809996Y-88360091D01*
X131810000Y-88360091D01*
X131810004Y-88360091D01*
X131972455Y-88341787D01*
X131972456Y-88341786D01*
X131972461Y-88341786D01*
X132126775Y-88287789D01*
X132265204Y-88200808D01*
X132380808Y-88085204D01*
X132467789Y-87946775D01*
X132521786Y-87792461D01*
X132521787Y-87792455D01*
X132535775Y-87668306D01*
X138269855Y-87668306D01*
X138290359Y-87837175D01*
X138290360Y-87837180D01*
X138350682Y-87996237D01*
X138396624Y-88062794D01*
X138447317Y-88136235D01*
X138535225Y-88214114D01*
X138574650Y-88249042D01*
X138666204Y-88297093D01*
X138725275Y-88328096D01*
X138890444Y-88368806D01*
X139060556Y-88368806D01*
X139225725Y-88328096D01*
X139376352Y-88249040D01*
X139469763Y-88166284D01*
X139532995Y-88136563D01*
X139602259Y-88145746D01*
X139639671Y-88171419D01*
X140232911Y-88764659D01*
X140266396Y-88825982D01*
X140268326Y-88867283D01*
X140264355Y-88899995D01*
X140264355Y-88899999D01*
X140284859Y-89068869D01*
X140284860Y-89068874D01*
X140345182Y-89227931D01*
X140348214Y-89232323D01*
X140441817Y-89367929D01*
X140547505Y-89461560D01*
X140569150Y-89480736D01*
X140719773Y-89559789D01*
X140719775Y-89559790D01*
X140884944Y-89600500D01*
X141055056Y-89600500D01*
X141220225Y-89559790D01*
X141299692Y-89518081D01*
X141370849Y-89480736D01*
X141370850Y-89480734D01*
X141370852Y-89480734D01*
X141498183Y-89367929D01*
X141594818Y-89227930D01*
X141655140Y-89068872D01*
X141675645Y-88900000D01*
X141655140Y-88731128D01*
X141594818Y-88572070D01*
X141583035Y-88555000D01*
X141543932Y-88498350D01*
X141498183Y-88432071D01*
X141370852Y-88319266D01*
X141370849Y-88319263D01*
X141220226Y-88240210D01*
X141055056Y-88199500D01*
X140922610Y-88199500D01*
X140855571Y-88179815D01*
X140834929Y-88163181D01*
X139991524Y-87319776D01*
X139970009Y-87308814D01*
X139953416Y-87298646D01*
X139933886Y-87284456D01*
X139910921Y-87276994D01*
X139892947Y-87269549D01*
X139871433Y-87258587D01*
X139866316Y-87257776D01*
X139847579Y-87254809D01*
X139828664Y-87250268D01*
X139805700Y-87242806D01*
X139805699Y-87242806D01*
X139771794Y-87242806D01*
X139597080Y-87242806D01*
X139530041Y-87223121D01*
X139509299Y-87205348D01*
X139509297Y-87205351D01*
X139509127Y-87205200D01*
X139504267Y-87201036D01*
X139503685Y-87200379D01*
X139376349Y-87087569D01*
X139225726Y-87008516D01*
X139060556Y-86967806D01*
X138890444Y-86967806D01*
X138725273Y-87008516D01*
X138574650Y-87087569D01*
X138447316Y-87200378D01*
X138350682Y-87340374D01*
X138290360Y-87499431D01*
X138290359Y-87499436D01*
X138269855Y-87668306D01*
X132535775Y-87668306D01*
X132540091Y-87630003D01*
X132540091Y-87629996D01*
X132521787Y-87467544D01*
X132521786Y-87467542D01*
X132521786Y-87467539D01*
X132467789Y-87313225D01*
X132380808Y-87174796D01*
X132265204Y-87059192D01*
X132184554Y-87008516D01*
X132126774Y-86972210D01*
X131972455Y-86918212D01*
X131810004Y-86899909D01*
X131809996Y-86899909D01*
X131647544Y-86918212D01*
X131493225Y-86972210D01*
X131375972Y-87045886D01*
X131308735Y-87064886D01*
X131244028Y-87045886D01*
X131126774Y-86972210D01*
X130972455Y-86918212D01*
X130810004Y-86899909D01*
X130809996Y-86899909D01*
X130715681Y-86910535D01*
X130646859Y-86898480D01*
X130602531Y-86861626D01*
X130592190Y-86847813D01*
X130592185Y-86847808D01*
X130477093Y-86761649D01*
X130477086Y-86761645D01*
X130342379Y-86711403D01*
X130342372Y-86711401D01*
X130282844Y-86705000D01*
X130060000Y-86705000D01*
X130060000Y-87605376D01*
X130045495Y-87532455D01*
X129990240Y-87449760D01*
X129907545Y-87394505D01*
X129834624Y-87380000D01*
X129785376Y-87380000D01*
X129712455Y-87394505D01*
X129629760Y-87449760D01*
X129574505Y-87532455D01*
X129555102Y-87630000D01*
X108168014Y-87630000D01*
X108258782Y-87491613D01*
X108334336Y-87380000D01*
X128885000Y-87380000D01*
X129560000Y-87380000D01*
X129560000Y-86705000D01*
X129337155Y-86705000D01*
X129277627Y-86711401D01*
X129277620Y-86711403D01*
X129142913Y-86761645D01*
X129142906Y-86761649D01*
X129027812Y-86847809D01*
X129027809Y-86847812D01*
X128941649Y-86962906D01*
X128941645Y-86962913D01*
X128891403Y-87097620D01*
X128891401Y-87097627D01*
X128885000Y-87157155D01*
X128885000Y-87380000D01*
X108334336Y-87380000D01*
X108510147Y-87120282D01*
X108729149Y-86819167D01*
X108998479Y-86459437D01*
X109231043Y-86170148D01*
X109517941Y-85822723D01*
X109763289Y-85546033D01*
X110067316Y-85211635D01*
X110186146Y-85090000D01*
X115484341Y-85090000D01*
X115504936Y-85325403D01*
X115504938Y-85325413D01*
X115566094Y-85553655D01*
X115566096Y-85553659D01*
X115566097Y-85553663D01*
X115611148Y-85650274D01*
X115665964Y-85767828D01*
X115665965Y-85767830D01*
X115801505Y-85961402D01*
X115968597Y-86128494D01*
X116162169Y-86264034D01*
X116162171Y-86264035D01*
X116376337Y-86363903D01*
X116604592Y-86425063D01*
X116781034Y-86440500D01*
X116898966Y-86440500D01*
X117075408Y-86425063D01*
X117303663Y-86363903D01*
X117312033Y-86360000D01*
X172634341Y-86360000D01*
X172654936Y-86595403D01*
X172654938Y-86595413D01*
X172716094Y-86823655D01*
X172716096Y-86823659D01*
X172716097Y-86823663D01*
X172756606Y-86910535D01*
X172815964Y-87037828D01*
X172815965Y-87037830D01*
X172951505Y-87231402D01*
X173118597Y-87398494D01*
X173312169Y-87534034D01*
X173312171Y-87534035D01*
X173526337Y-87633903D01*
X173754592Y-87695063D01*
X173931034Y-87710500D01*
X174048966Y-87710500D01*
X174225408Y-87695063D01*
X174453663Y-87633903D01*
X174667829Y-87534035D01*
X174861401Y-87398495D01*
X175028495Y-87231401D01*
X175164035Y-87037830D01*
X175263903Y-86823663D01*
X175325063Y-86595408D01*
X175345659Y-86360000D01*
X175325063Y-86124592D01*
X175263903Y-85896337D01*
X175164035Y-85682171D01*
X175164034Y-85682169D01*
X175028494Y-85488597D01*
X174861402Y-85321505D01*
X174667830Y-85185965D01*
X174667828Y-85185964D01*
X174560746Y-85136031D01*
X174453663Y-85086097D01*
X174453659Y-85086096D01*
X174453655Y-85086094D01*
X174225413Y-85024938D01*
X174225403Y-85024936D01*
X174048966Y-85009500D01*
X173931034Y-85009500D01*
X173754596Y-85024936D01*
X173754586Y-85024938D01*
X173526344Y-85086094D01*
X173526335Y-85086098D01*
X173312171Y-85185964D01*
X173312169Y-85185965D01*
X173118597Y-85321505D01*
X172951506Y-85488597D01*
X172951501Y-85488604D01*
X172815967Y-85682165D01*
X172815965Y-85682169D01*
X172716098Y-85896335D01*
X172716094Y-85896344D01*
X172654938Y-86124586D01*
X172654936Y-86124596D01*
X172634341Y-86359999D01*
X172634341Y-86360000D01*
X117312033Y-86360000D01*
X117517829Y-86264035D01*
X117711401Y-86128495D01*
X117878495Y-85961401D01*
X118014035Y-85767830D01*
X118113903Y-85553663D01*
X118175063Y-85325408D01*
X118195659Y-85090000D01*
X118175063Y-84854592D01*
X118113903Y-84626337D01*
X118014035Y-84412171D01*
X118014034Y-84412169D01*
X117878494Y-84218597D01*
X117711402Y-84051505D01*
X117517830Y-83915965D01*
X117517828Y-83915964D01*
X117410746Y-83866031D01*
X117303663Y-83816097D01*
X117303659Y-83816096D01*
X117303655Y-83816094D01*
X117075413Y-83754938D01*
X117075403Y-83754936D01*
X116898966Y-83739500D01*
X116781034Y-83739500D01*
X116604596Y-83754936D01*
X116604586Y-83754938D01*
X116376344Y-83816094D01*
X116376335Y-83816098D01*
X116162171Y-83915964D01*
X116162169Y-83915965D01*
X115968597Y-84051505D01*
X115801506Y-84218597D01*
X115801501Y-84218604D01*
X115665967Y-84412165D01*
X115665965Y-84412169D01*
X115566098Y-84626335D01*
X115566094Y-84626344D01*
X115504938Y-84854586D01*
X115504936Y-84854596D01*
X115484341Y-85089999D01*
X115484341Y-85090000D01*
X110186146Y-85090000D01*
X110324716Y-84948160D01*
X110645323Y-84627593D01*
X110877141Y-84412171D01*
X110913904Y-84378006D01*
X111250716Y-84071859D01*
X111529516Y-83836816D01*
X111882020Y-83545795D01*
X112169967Y-83325923D01*
X112537834Y-83050571D01*
X112833780Y-82846433D01*
X113216634Y-82587335D01*
X113276781Y-82550000D01*
X127114571Y-82550000D01*
X127134244Y-82762310D01*
X127192596Y-82967392D01*
X127192596Y-82967394D01*
X127287632Y-83158253D01*
X127355693Y-83248379D01*
X127416128Y-83328407D01*
X127573698Y-83472052D01*
X127754981Y-83584298D01*
X127953802Y-83661321D01*
X128163390Y-83700500D01*
X128163392Y-83700500D01*
X128376608Y-83700500D01*
X128376610Y-83700500D01*
X128586198Y-83661321D01*
X128785019Y-83584298D01*
X128966302Y-83472052D01*
X129123872Y-83328407D01*
X129252366Y-83158255D01*
X129252367Y-83158253D01*
X129347403Y-82967394D01*
X129347403Y-82967393D01*
X129347405Y-82967389D01*
X129405756Y-82762310D01*
X129416529Y-82646047D01*
X129442315Y-82581111D01*
X129484622Y-82550804D01*
X129593130Y-82550804D01*
X129629503Y-82571668D01*
X129661693Y-82633681D01*
X129663471Y-82646048D01*
X129674244Y-82762310D01*
X129732596Y-82967392D01*
X129732596Y-82967394D01*
X129827632Y-83158253D01*
X129895693Y-83248379D01*
X129956128Y-83328407D01*
X130113698Y-83472052D01*
X130294981Y-83584298D01*
X130493802Y-83661321D01*
X130703390Y-83700500D01*
X130703392Y-83700500D01*
X130916608Y-83700500D01*
X130916610Y-83700500D01*
X131126198Y-83661321D01*
X131325019Y-83584298D01*
X131506302Y-83472052D01*
X131663872Y-83328407D01*
X131792366Y-83158255D01*
X131792367Y-83158253D01*
X131887403Y-82967394D01*
X131887403Y-82967393D01*
X131887405Y-82967389D01*
X131945756Y-82762310D01*
X131956529Y-82646047D01*
X131982315Y-82581111D01*
X132024622Y-82550804D01*
X132133130Y-82550804D01*
X132169503Y-82571668D01*
X132201693Y-82633681D01*
X132203471Y-82646048D01*
X132214244Y-82762310D01*
X132272596Y-82967392D01*
X132272596Y-82967394D01*
X132367632Y-83158253D01*
X132435693Y-83248379D01*
X132496128Y-83328407D01*
X132653698Y-83472052D01*
X132834981Y-83584298D01*
X133033802Y-83661321D01*
X133243390Y-83700500D01*
X133243392Y-83700500D01*
X133456608Y-83700500D01*
X133456610Y-83700500D01*
X133666198Y-83661321D01*
X133865019Y-83584298D01*
X134046302Y-83472052D01*
X134203872Y-83328407D01*
X134332366Y-83158255D01*
X134332367Y-83158253D01*
X134427403Y-82967394D01*
X134427403Y-82967393D01*
X134427405Y-82967389D01*
X134485756Y-82762310D01*
X134496529Y-82646047D01*
X134522315Y-82581111D01*
X134564622Y-82550804D01*
X134673130Y-82550804D01*
X134709503Y-82571668D01*
X134741693Y-82633681D01*
X134743471Y-82646048D01*
X134754244Y-82762310D01*
X134812596Y-82967392D01*
X134812596Y-82967394D01*
X134907632Y-83158253D01*
X134975693Y-83248379D01*
X135036128Y-83328407D01*
X135193698Y-83472052D01*
X135374981Y-83584298D01*
X135573802Y-83661321D01*
X135783390Y-83700500D01*
X135783392Y-83700500D01*
X135996608Y-83700500D01*
X135996610Y-83700500D01*
X136206198Y-83661321D01*
X136405019Y-83584298D01*
X136586302Y-83472052D01*
X136743872Y-83328407D01*
X136872366Y-83158255D01*
X136872367Y-83158253D01*
X136967403Y-82967394D01*
X136967403Y-82967393D01*
X136967405Y-82967389D01*
X137025756Y-82762310D01*
X137036529Y-82646047D01*
X137062315Y-82581111D01*
X137104622Y-82550804D01*
X137213130Y-82550804D01*
X137249503Y-82571668D01*
X137281693Y-82633681D01*
X137283471Y-82646048D01*
X137294244Y-82762310D01*
X137352596Y-82967392D01*
X137352596Y-82967394D01*
X137447632Y-83158253D01*
X137515693Y-83248379D01*
X137576128Y-83328407D01*
X137733698Y-83472052D01*
X137914981Y-83584298D01*
X138113802Y-83661321D01*
X138323390Y-83700500D01*
X138323392Y-83700500D01*
X138536608Y-83700500D01*
X138536610Y-83700500D01*
X138746198Y-83661321D01*
X138945019Y-83584298D01*
X139126302Y-83472052D01*
X139283872Y-83328407D01*
X139412366Y-83158255D01*
X139412367Y-83158253D01*
X139507403Y-82967394D01*
X139507403Y-82967393D01*
X139507405Y-82967389D01*
X139565756Y-82762310D01*
X139576529Y-82646047D01*
X139602315Y-82581111D01*
X139644622Y-82550804D01*
X139753130Y-82550804D01*
X139789503Y-82571668D01*
X139821693Y-82633681D01*
X139823471Y-82646048D01*
X139834244Y-82762310D01*
X139892596Y-82967392D01*
X139892596Y-82967394D01*
X139987632Y-83158253D01*
X140055693Y-83248379D01*
X140116128Y-83328407D01*
X140273698Y-83472052D01*
X140454981Y-83584298D01*
X140653802Y-83661321D01*
X140863390Y-83700500D01*
X140863392Y-83700500D01*
X141076608Y-83700500D01*
X141076610Y-83700500D01*
X141286198Y-83661321D01*
X141485019Y-83584298D01*
X141666302Y-83472052D01*
X141823872Y-83328407D01*
X141952366Y-83158255D01*
X141952367Y-83158253D01*
X142047403Y-82967394D01*
X142047403Y-82967393D01*
X142047405Y-82967389D01*
X142105756Y-82762310D01*
X142112029Y-82694605D01*
X142137814Y-82629669D01*
X142194614Y-82588981D01*
X142264395Y-82585461D01*
X142325002Y-82620225D01*
X142357193Y-82682238D01*
X142359500Y-82706047D01*
X142359500Y-83444856D01*
X142359502Y-83444882D01*
X142362413Y-83469987D01*
X142362415Y-83469991D01*
X142407793Y-83572764D01*
X142407794Y-83572765D01*
X142487235Y-83652206D01*
X142590009Y-83697585D01*
X142615135Y-83700500D01*
X144404864Y-83700499D01*
X144404879Y-83700497D01*
X144404882Y-83700497D01*
X144429987Y-83697586D01*
X144429988Y-83697585D01*
X144429991Y-83697585D01*
X144532765Y-83652206D01*
X144612206Y-83572765D01*
X144657585Y-83469991D01*
X144660500Y-83444865D01*
X144660500Y-82800000D01*
X145979364Y-82800000D01*
X146036567Y-83013486D01*
X146036570Y-83013492D01*
X146136399Y-83227578D01*
X146271894Y-83421082D01*
X146438917Y-83588105D01*
X146632421Y-83723600D01*
X146846507Y-83823429D01*
X146846516Y-83823433D01*
X147060000Y-83880634D01*
X147060000Y-82985501D01*
X147167685Y-83034680D01*
X147274237Y-83050000D01*
X147345763Y-83050000D01*
X147452315Y-83034680D01*
X147560000Y-82985501D01*
X147560000Y-83880633D01*
X147773483Y-83823433D01*
X147773492Y-83823429D01*
X147987578Y-83723600D01*
X148181082Y-83588105D01*
X148348105Y-83421082D01*
X148483600Y-83227578D01*
X148577294Y-83026651D01*
X148623466Y-82974212D01*
X148690660Y-82955060D01*
X148757541Y-82975276D01*
X148800676Y-83023785D01*
X148867632Y-83158253D01*
X148935693Y-83248379D01*
X148996128Y-83328407D01*
X149153698Y-83472052D01*
X149334981Y-83584298D01*
X149533802Y-83661321D01*
X149743390Y-83700500D01*
X149743392Y-83700500D01*
X149956608Y-83700500D01*
X149956610Y-83700500D01*
X150166198Y-83661321D01*
X150365019Y-83584298D01*
X150546302Y-83472052D01*
X150703872Y-83328407D01*
X150832366Y-83158255D01*
X150832367Y-83158253D01*
X150927403Y-82967394D01*
X150927403Y-82967393D01*
X150927405Y-82967389D01*
X150985756Y-82762310D01*
X150996529Y-82646047D01*
X151022315Y-82581111D01*
X151064622Y-82550804D01*
X151173130Y-82550804D01*
X151209503Y-82571668D01*
X151241693Y-82633681D01*
X151243471Y-82646048D01*
X151254244Y-82762310D01*
X151312596Y-82967392D01*
X151312596Y-82967394D01*
X151407632Y-83158253D01*
X151475693Y-83248379D01*
X151536128Y-83328407D01*
X151693698Y-83472052D01*
X151874981Y-83584298D01*
X152073802Y-83661321D01*
X152283390Y-83700500D01*
X152283392Y-83700500D01*
X152496608Y-83700500D01*
X152496610Y-83700500D01*
X152706198Y-83661321D01*
X152905019Y-83584298D01*
X153086302Y-83472052D01*
X153243872Y-83328407D01*
X153372366Y-83158255D01*
X153372367Y-83158253D01*
X153467403Y-82967394D01*
X153467403Y-82967393D01*
X153467405Y-82967389D01*
X153525756Y-82762310D01*
X153532029Y-82694605D01*
X153557814Y-82629669D01*
X153614614Y-82588981D01*
X153684395Y-82585461D01*
X153745002Y-82620225D01*
X153777193Y-82682238D01*
X153779500Y-82706047D01*
X153779500Y-83444856D01*
X153779502Y-83444882D01*
X153782413Y-83469987D01*
X153782415Y-83469991D01*
X153827793Y-83572764D01*
X153827794Y-83572765D01*
X153907235Y-83652206D01*
X154010009Y-83697585D01*
X154035135Y-83700500D01*
X155824864Y-83700499D01*
X155824879Y-83700497D01*
X155824882Y-83700497D01*
X155849987Y-83697586D01*
X155849988Y-83697585D01*
X155849991Y-83697585D01*
X155952765Y-83652206D01*
X156032206Y-83572765D01*
X156077585Y-83469991D01*
X156080500Y-83444865D01*
X156080499Y-81655136D01*
X156080497Y-81655117D01*
X156077586Y-81630012D01*
X156077585Y-81630010D01*
X156077585Y-81630009D01*
X156032206Y-81527235D01*
X155952765Y-81447794D01*
X155932124Y-81438680D01*
X155849992Y-81402415D01*
X155824865Y-81399500D01*
X154035143Y-81399500D01*
X154035117Y-81399502D01*
X154010012Y-81402413D01*
X154010008Y-81402415D01*
X153907235Y-81447793D01*
X153827794Y-81527234D01*
X153782415Y-81630006D01*
X153782415Y-81630008D01*
X153779500Y-81655131D01*
X153779500Y-82393951D01*
X153759815Y-82460990D01*
X153707011Y-82506745D01*
X153637853Y-82516689D01*
X153574297Y-82487664D01*
X153536523Y-82428886D01*
X153532029Y-82405391D01*
X153525756Y-82337689D01*
X153511273Y-82286789D01*
X153467405Y-82132611D01*
X153467403Y-82132606D01*
X153467403Y-82132605D01*
X153372367Y-81941746D01*
X153243872Y-81771593D01*
X153207676Y-81738596D01*
X153086302Y-81627948D01*
X152905019Y-81515702D01*
X152905017Y-81515701D01*
X152737442Y-81450783D01*
X152706198Y-81438679D01*
X152496610Y-81399500D01*
X152283390Y-81399500D01*
X152073802Y-81438679D01*
X152073799Y-81438679D01*
X152073799Y-81438680D01*
X151874982Y-81515701D01*
X151874980Y-81515702D01*
X151693699Y-81627947D01*
X151536127Y-81771593D01*
X151407632Y-81941746D01*
X151312596Y-82132605D01*
X151312596Y-82132607D01*
X151254244Y-82337689D01*
X151243471Y-82453951D01*
X151217685Y-82518888D01*
X151173130Y-82550804D01*
X151064622Y-82550804D01*
X151066869Y-82549194D01*
X151030497Y-82528331D01*
X150998307Y-82466318D01*
X150996529Y-82453951D01*
X150990969Y-82393951D01*
X150985756Y-82337690D01*
X150927405Y-82132611D01*
X150927403Y-82132606D01*
X150927403Y-82132605D01*
X150832367Y-81941746D01*
X150703872Y-81771593D01*
X150667676Y-81738596D01*
X150546302Y-81627948D01*
X150365019Y-81515702D01*
X150365017Y-81515701D01*
X150197442Y-81450783D01*
X150166198Y-81438679D01*
X149956610Y-81399500D01*
X149743390Y-81399500D01*
X149533802Y-81438679D01*
X149533799Y-81438679D01*
X149533799Y-81438680D01*
X149334982Y-81515701D01*
X149334980Y-81515702D01*
X149153699Y-81627947D01*
X148996127Y-81771593D01*
X148867634Y-81941744D01*
X148800676Y-82076215D01*
X148753173Y-82127452D01*
X148685510Y-82144873D01*
X148619170Y-82122947D01*
X148577294Y-82073348D01*
X148483600Y-81872422D01*
X148483599Y-81872420D01*
X148348113Y-81678926D01*
X148348108Y-81678920D01*
X148181082Y-81511894D01*
X147987578Y-81376399D01*
X147773492Y-81276570D01*
X147773486Y-81276567D01*
X147560000Y-81219364D01*
X147560000Y-82114498D01*
X147452315Y-82065320D01*
X147345763Y-82050000D01*
X147274237Y-82050000D01*
X147167685Y-82065320D01*
X147060000Y-82114498D01*
X147060000Y-81219364D01*
X147059999Y-81219364D01*
X146846513Y-81276567D01*
X146846507Y-81276570D01*
X146632422Y-81376399D01*
X146632420Y-81376400D01*
X146438926Y-81511886D01*
X146438920Y-81511891D01*
X146271891Y-81678920D01*
X146271886Y-81678926D01*
X146136400Y-81872420D01*
X146136399Y-81872422D01*
X146036570Y-82086507D01*
X146036567Y-82086513D01*
X145979364Y-82299999D01*
X145979364Y-82300000D01*
X146876314Y-82300000D01*
X146850507Y-82340156D01*
X146810000Y-82478111D01*
X146810000Y-82621889D01*
X146850507Y-82759844D01*
X146876314Y-82800000D01*
X145979364Y-82800000D01*
X144660500Y-82800000D01*
X144660499Y-81655136D01*
X144660497Y-81655117D01*
X144657586Y-81630012D01*
X144657585Y-81630010D01*
X144657585Y-81630009D01*
X144612206Y-81527235D01*
X144532765Y-81447794D01*
X144512124Y-81438680D01*
X144429992Y-81402415D01*
X144404865Y-81399500D01*
X142615143Y-81399500D01*
X142615117Y-81399502D01*
X142590012Y-81402413D01*
X142590008Y-81402415D01*
X142487235Y-81447793D01*
X142407794Y-81527234D01*
X142362415Y-81630006D01*
X142362415Y-81630008D01*
X142359500Y-81655131D01*
X142359500Y-82393951D01*
X142339815Y-82460990D01*
X142287011Y-82506745D01*
X142217853Y-82516689D01*
X142154297Y-82487664D01*
X142116523Y-82428886D01*
X142112029Y-82405391D01*
X142105756Y-82337689D01*
X142091273Y-82286789D01*
X142047405Y-82132611D01*
X142047403Y-82132606D01*
X142047403Y-82132605D01*
X141952367Y-81941746D01*
X141823872Y-81771593D01*
X141787676Y-81738596D01*
X141666302Y-81627948D01*
X141485019Y-81515702D01*
X141485017Y-81515701D01*
X141317442Y-81450783D01*
X141286198Y-81438679D01*
X141076610Y-81399500D01*
X140863390Y-81399500D01*
X140653802Y-81438679D01*
X140653799Y-81438679D01*
X140653799Y-81438680D01*
X140454982Y-81515701D01*
X140454980Y-81515702D01*
X140273699Y-81627947D01*
X140116127Y-81771593D01*
X139987632Y-81941746D01*
X139892596Y-82132605D01*
X139892596Y-82132607D01*
X139834244Y-82337689D01*
X139823471Y-82453951D01*
X139797685Y-82518888D01*
X139753130Y-82550804D01*
X139644622Y-82550804D01*
X139646869Y-82549194D01*
X139610497Y-82528331D01*
X139578307Y-82466318D01*
X139576529Y-82453951D01*
X139570969Y-82393951D01*
X139565756Y-82337690D01*
X139507405Y-82132611D01*
X139507403Y-82132606D01*
X139507403Y-82132605D01*
X139412367Y-81941746D01*
X139283872Y-81771593D01*
X139247676Y-81738596D01*
X139126302Y-81627948D01*
X138945019Y-81515702D01*
X138945017Y-81515701D01*
X138777442Y-81450783D01*
X138746198Y-81438679D01*
X138536610Y-81399500D01*
X138323390Y-81399500D01*
X138113802Y-81438679D01*
X138113799Y-81438679D01*
X138113799Y-81438680D01*
X137914982Y-81515701D01*
X137914980Y-81515702D01*
X137733699Y-81627947D01*
X137576127Y-81771593D01*
X137447632Y-81941746D01*
X137352596Y-82132605D01*
X137352596Y-82132607D01*
X137294244Y-82337689D01*
X137283471Y-82453951D01*
X137257685Y-82518888D01*
X137213130Y-82550804D01*
X137104622Y-82550804D01*
X137106869Y-82549194D01*
X137070497Y-82528331D01*
X137038307Y-82466318D01*
X137036529Y-82453951D01*
X137030969Y-82393951D01*
X137025756Y-82337690D01*
X136967405Y-82132611D01*
X136967403Y-82132606D01*
X136967403Y-82132605D01*
X136872367Y-81941746D01*
X136743872Y-81771593D01*
X136707676Y-81738596D01*
X136586302Y-81627948D01*
X136405019Y-81515702D01*
X136405017Y-81515701D01*
X136237442Y-81450783D01*
X136206198Y-81438679D01*
X135996610Y-81399500D01*
X135783390Y-81399500D01*
X135573802Y-81438679D01*
X135573799Y-81438679D01*
X135573799Y-81438680D01*
X135374982Y-81515701D01*
X135374980Y-81515702D01*
X135193699Y-81627947D01*
X135036127Y-81771593D01*
X134907632Y-81941746D01*
X134812596Y-82132605D01*
X134812596Y-82132607D01*
X134754244Y-82337689D01*
X134743471Y-82453951D01*
X134717685Y-82518888D01*
X134673130Y-82550804D01*
X134564622Y-82550804D01*
X134566869Y-82549194D01*
X134530497Y-82528331D01*
X134498307Y-82466318D01*
X134496529Y-82453951D01*
X134490969Y-82393951D01*
X134485756Y-82337690D01*
X134427405Y-82132611D01*
X134427403Y-82132606D01*
X134427403Y-82132605D01*
X134332367Y-81941746D01*
X134203872Y-81771593D01*
X134167676Y-81738596D01*
X134046302Y-81627948D01*
X133865019Y-81515702D01*
X133865017Y-81515701D01*
X133697442Y-81450783D01*
X133666198Y-81438679D01*
X133456610Y-81399500D01*
X133243390Y-81399500D01*
X133033802Y-81438679D01*
X133033799Y-81438679D01*
X133033799Y-81438680D01*
X132834982Y-81515701D01*
X132834980Y-81515702D01*
X132653699Y-81627947D01*
X132496127Y-81771593D01*
X132367632Y-81941746D01*
X132272596Y-82132605D01*
X132272596Y-82132607D01*
X132214244Y-82337689D01*
X132203471Y-82453951D01*
X132177685Y-82518888D01*
X132133130Y-82550804D01*
X132024622Y-82550804D01*
X132026869Y-82549194D01*
X131990497Y-82528331D01*
X131958307Y-82466318D01*
X131956529Y-82453951D01*
X131950969Y-82393951D01*
X131945756Y-82337690D01*
X131887405Y-82132611D01*
X131887403Y-82132606D01*
X131887403Y-82132605D01*
X131792367Y-81941746D01*
X131663872Y-81771593D01*
X131627676Y-81738596D01*
X131506302Y-81627948D01*
X131325019Y-81515702D01*
X131325017Y-81515701D01*
X131157442Y-81450783D01*
X131126198Y-81438679D01*
X130916610Y-81399500D01*
X130703390Y-81399500D01*
X130493802Y-81438679D01*
X130493799Y-81438679D01*
X130493799Y-81438680D01*
X130294982Y-81515701D01*
X130294980Y-81515702D01*
X130113699Y-81627947D01*
X129956127Y-81771593D01*
X129827632Y-81941746D01*
X129732596Y-82132605D01*
X129732596Y-82132607D01*
X129674244Y-82337689D01*
X129663471Y-82453951D01*
X129637685Y-82518888D01*
X129593130Y-82550804D01*
X129484622Y-82550804D01*
X129486869Y-82549194D01*
X129450497Y-82528331D01*
X129418307Y-82466318D01*
X129416529Y-82453951D01*
X129410969Y-82393951D01*
X129405756Y-82337690D01*
X129347405Y-82132611D01*
X129347403Y-82132606D01*
X129347403Y-82132605D01*
X129252367Y-81941746D01*
X129123872Y-81771593D01*
X129087676Y-81738596D01*
X128966302Y-81627948D01*
X128785019Y-81515702D01*
X128785017Y-81515701D01*
X128617442Y-81450783D01*
X128586198Y-81438679D01*
X128376610Y-81399500D01*
X128163390Y-81399500D01*
X127953802Y-81438679D01*
X127953799Y-81438679D01*
X127953799Y-81438680D01*
X127754982Y-81515701D01*
X127754980Y-81515702D01*
X127573699Y-81627947D01*
X127416127Y-81771593D01*
X127287632Y-81941746D01*
X127192596Y-82132605D01*
X127192596Y-82132607D01*
X127134244Y-82337689D01*
X127114571Y-82549999D01*
X127114571Y-82550000D01*
X113276781Y-82550000D01*
X113519274Y-82399476D01*
X113916850Y-82157163D01*
X114224817Y-81986021D01*
X114636911Y-81761021D01*
X114948447Y-81607093D01*
X115375127Y-81399843D01*
X115688346Y-81263483D01*
X116129804Y-81074456D01*
X116258666Y-81025614D01*
X116442185Y-80956056D01*
X116640989Y-80881911D01*
X116899208Y-80785608D01*
X117207382Y-80685533D01*
X117681598Y-80533955D01*
X117981137Y-80452444D01*
X118475150Y-80320084D01*
X118758851Y-80257423D01*
X119276748Y-80144771D01*
X119279379Y-80144260D01*
X119533609Y-80100862D01*
X120087128Y-80007790D01*
X120089776Y-80007407D01*
X120290548Y-79983041D01*
X120903069Y-79909812D01*
X120905935Y-79909537D01*
X120925656Y-79908105D01*
X120975866Y-79904459D01*
X121718529Y-79851347D01*
X121721402Y-79851210D01*
X122535492Y-79831832D01*
X135105913Y-79882309D01*
G37*
%TD.AperFunction*%
%TD*%
M02*
